<svg xmlns="http://www.w3.org/2000/svg" width="328" height="162" viewBox="0 0 328 162">
  <g fill="none" fill-rule="evenodd">
    <path fill="#EF5F52" d="M38.72 34.331C42.5480191 35.2590046 45.6944877 36.9554877 48.1595 39.4205 50.6245123 41.8855123 52.1179974 44.5534856 52.64 47.4245 53.1620026 50.2955144 52.6545077 53.1954854 51.1175 56.1245 49.5804923 59.0535146 47.0720174 61.416991 43.592 63.215 40.3439838 64.8970084 35.6460307 66.1729956 29.498 67.043 23.3499693 67.9130043 17.3180296 68.2030015 11.402 67.913 8.5019855 67.7389991 6.05151 66.7965086 4.0505 65.0855 2.04948999 63.3744914 1.02000029 61.3590116.962 59.039L1.658 13.364C1.71600029 11.4499904 2.55699188 9.7825071 4.181 8.3615 5.80500812 6.94049289 7.80598811 6.14300087 10.184 5.969L10.445 5.969C17.5790357 6.25900145 24.3359681 6.9839942 30.716 8.144 34.0220165 8.7240029 36.6029907 10.0724894 38.459 12.1895 40.3150093 14.3065106 41.243 16.8729849 41.243 19.889 41.3010003 21.8030096 40.8660046 23.557492 39.938 25.1525 39.0099954 26.747508 38.0530049 27.9509959 37.067 28.763 36.0809951 29.5750041 35.2690032 30.3289965 34.631 31.025 33.9929968 31.7210035 33.9639971 32.3154975 34.544 32.8085 35.1240029 33.3015025 36.515989 33.8089974 38.72 34.331zM17.753 15.887C16.5929942 15.9450003 15.911501 16.4089956 15.7085 17.279 15.505499 18.1490043 15.5199988 19.1639942 15.752 20.324 15.8680006 24.2680197 17.1729875 26.1530009 19.667 25.979 22.6830151 25.8049991 24.1330006 24.1810154 24.017 21.107 24.017 19.5989925 23.4370058 18.3520049 22.277 17.366 21.1169942 16.3799951 19.6090093 15.887 17.753 15.887zM20.015 58.082C22.5670128 58.1400003 24.5679927 57.5020067 26.018 56.168 27.4680072 54.8339933 28.1640003 53.065011 28.106 50.861 27.9899994 48.5989887 27.1200081 46.6850078 25.496 45.119 23.8719919 43.5529922 21.958011 42.8279994 19.754 42.944 19.0579965 43.0020003 18.4490026 43.1034993 17.927 43.2485 17.4049974 43.3935007 16.9555019 43.5384993 16.5785 43.6835 16.2014981 43.8285007 15.8970012 44.0894981 15.665 44.4665 15.4329988 44.8435019 15.2445007 45.1189991 15.0995 45.293 14.9544993 45.4670009 14.8530003 45.8439971 14.795 46.424 14.7369997 47.0040029 14.708 47.3664993 14.708 47.5115L14.708 49.904C14.708 53.0940159 15.0269968 55.2544943 15.665 56.3855 16.3030032 57.5165057 17.7529887 58.082 20.015 58.082zM57.338 9.623C57.338 11.5370096 57.135002 19.8164268 56.729 34.4615 56.322998 49.1065732 56.1489997 58.0819835 56.207 61.388 56.2650003 63.7660119 56.8014949 65.3319962 57.8165 66.086 58.8315051 66.8400038 60.8759846 67.2459997 63.95 67.304 65.6900087 67.3620003 69.3149725 67.4634993 74.825 67.6085 80.3350276 67.7535007 84.5689852 67.8549997 87.527 67.913 94.0810328 68.0870009 98.1699919 67.5070067 99.794 66.173 101.418008 64.8389933 102.027002 61.6490252 101.621 56.603 101.388999 52.9489817 98.9820229 51.0060012 94.4 50.774 93.7619968 50.7159997 92.6020084 50.6580003 90.92 50.6 89.2379916 50.5419997 87.8025059 50.4550006 86.6135 50.339 85.4244941 50.2229994 84.3080052 50.0490012 83.264 49.817 81.9879936 49.5849988 80.7555059 49.1210035 79.5665 48.425 78.3774941 47.7289965 77.783 47.0330035 77.783 46.337 77.783 45.2929948 78.0294975 44.5390023 78.5225 44.075 79.0155025 43.6109977 79.6099965 43.3645001 80.306 43.3355 81.0020035 43.3064999 81.9879936 43.1760012 83.264 42.944 84.5400064 42.7119988 85.6999948 42.3060029 86.744 41.726 90.9200209 38.4779838 91.4420157 35.056018 88.31 31.46 87.1499942 30.5899956 85.5840099 30.2419991 83.612 30.416 81.6399901 30.5900009 80.3930026 30.2130046 79.871 29.285 77.3769875 26.1529843 78.2759785 24.0360055 82.568 22.934 83.4380044 22.7599991 84.771991 22.6150006 86.57 22.499 88.0200073 22.4409997 89.1944955 22.3830003 90.0935 22.325 90.9925045 22.2669997 91.9204952 22.1655007 92.8775 22.0205 93.8345048 21.8754993 94.5739974 21.7595004 95.096 21.6725 95.6180026 21.5854996 96.1689971 21.4115013 96.749 21.1505 97.3290029 20.8894987 97.7494987 20.6430012 98.0105 20.411 98.2715013 20.1789988 98.5469986 19.8165025 98.837 19.3235 99.1270015 18.8304975 99.3154996 18.381002 99.4025 17.975 99.4895004 17.568998 99.5619997 16.9745039 99.62 16.1915 99.6780003 15.4084961 99.707 14.6690035 99.707 13.973 99.707 13.2769965 99.6780003 12.3780055 99.62 11.276L99.62 9.71C99.3879988 7.27398782 98.6775059 5.60650449 97.4885 4.7075 96.2994941 3.8084955 94.1390157 3.33000029 91.007 3.272L66.299 3.011C62.702982 2.95299971 60.3250058 3.34449579 59.165 4.1855 58.0049942 5.0265042 57.3960003 6.83898608 57.338 9.623z"/>
    <path fill="#4A4A4A" d="M143.12 23.195C143.178 24.5290067 142.801004 25.7034949 141.989 26.7185 141.176996 27.7335051 140.104007 28.3279991 138.77 28.502 137.145992 28.6760009 134.739016 28.9224984 131.549 29.2415 128.358984 29.5605016 126.010008 29.8069991 124.502 29.981 122.877992 30.0970006 121.805003 30.459497 121.283 31.0685 120.760997 31.677503 120.5 32.8229916 120.5 34.505 120.5 35.5490052 120.471 36.3319974 120.413 36.854 120.413 37.7240044 120.746497 38.4489971 121.4135 39.029 122.080503 39.6090029 122.848996 39.8410006 123.719 39.725 127.025017 39.2609977 128.938997 39.4349959 129.461 40.247 130.157003 41.3490055 130.505 44.0749783 130.505 48.425 130.388999 50.0490081 129.635007 51.0929977 128.243 51.557 126.734992 52.0210023 125.140008 52.253 123.458 52.253 122.529995 52.253 121.747003 52.5719968 121.109 53.21 120.470997 53.8480032 120.123 54.6309954 120.065 55.559 120.065 57.4150093 120.007001 60.1989814 119.891 63.911 119.833 65.2450067 119.528503 66.216497 118.9775 66.8255 118.426497 67.434503 117.484007 67.7679997 116.15 67.826 115.685998 67.8840003 114.294012 67.913 111.974 67.913 108.609983 68.0870009 106.638003 67.8985028 106.058 67.3475 105.477997 66.7964972 105.217 64.8390168 105.275 61.475 105.333 58.4009846 105.477999 54.0220284 105.71 48.338 105.942001 42.6539716 106.087 38.8840093 106.145 37.028 105.680998 21.5999229 105.391001 12.4650142 105.275 9.623 105.217 8.34699362 106.318989 7.47700232 108.581 7.013 110.843011 6.54899768 113.104989 6.40399913 115.367 6.578L118.847 6.752C120.993011 6.752 124.226478 6.69400058 128.5475 6.578 132.868522 6.46199942 136.130989 6.37500029 138.335 6.317 139.495006 6.317 140.480996 6.72299594 141.293 7.535 142.105004 8.34700406 142.511 9.3329942 142.511 10.493 142.627001 15.3070241 142.829999 19.5409817 143.12 23.195zM161.651 67.826C158.692985 67.5359986 155.880013 66.695007 153.212 65.303 152.341996 64.8389977 151.515504 64.1720044 150.7325 63.302 149.949496 62.4319957 149.442001 61.5330046 149.21 60.605 145.033979 45.6409252 145.845971 31.4890667 151.646 18.149 153.328008 14.0889797 156.575976 11.1020096 161.39 9.188 167.596031 6.75198782 175.251954 5.18600348 184.358 4.49 187.200014 4.25799884 191.216474 4.09850043 196.4075 4.0115 201.598526 3.92449956 205.092991 3.85200029 206.891 3.794 210.487018 3.67799942 213.357989 4.70748912 215.504 6.8825 217.650011 9.05751087 219.012997 11.7689838 219.593 15.017 220.347004 19.7150235 220.724 24.1519791 220.724 28.328 220.607999 38.3040499 220.231003 46.191971 219.593 51.992 219.186998 55.8780194 217.592014 59.1984862 214.808 61.9535 212.023986 64.7085138 208.66002 66.3179977 204.716 66.782 200.133977 67.2460023 192.318555 67.5939988 181.2695 67.826 170.220445 68.0580012 163.68101 68.0580012 161.651 67.826zM178.442 45.815C186.50404 45.2929974 190.679999 45.0030003 190.97 44.945 195.784024 44.538998 198.509997 42.538018 199.148 38.942 199.554002 36.4479875 199.641001 31.6920351 199.409 24.674 199.292999 22.2959881 197.814014 20.9910012 194.972 20.759 187.837964 20.4689986 183.546007 20.3529997 182.096 20.411 175.715968 20.7590017 171.221013 22.7599817 168.611 26.414 165.594985 30.5900209 164.985991 35.6359704 166.784 41.552 166.958001 42.1900032 167.407496 42.813497 168.1325 43.4225 168.857504 44.031503 169.567997 44.4229991 170.264 44.597 172.17801 45.0610023 174.903982 45.4669983 178.442 45.815zM265.442 1.184C268.574016 1.41600116 271.270989 2.63398898 273.533 4.838 275.795011 7.04201102 277.070999 9.70998434 277.361 12.842 277.535001 14.5240084 277.651 16.9744839 277.709 20.1935 277.767 23.4125161 277.853999 25.7469928 277.97 27.197 278.318002 33.1710299 275.795027 38.0139814 270.401 41.726 267.384985 43.8140104 265.717502 45.5684929 265.3985 46.9895 265.079498 48.4105071 265.731992 50.7739835 267.356 54.08L271.184 61.736C272.750008 65.0420165 271.793017 66.8109988 268.313 67.043 267.732997 67.1010003 266.631008 67.13 265.007 67.13L261.701 67.13C258.046982 67.3040009 255.379008 65.7380165 253.697 62.432 253.464999 61.9679977 252.827005 60.5470119 251.783 58.169 250.738995 55.7909881 249.840004 54.0220058 249.086 52.862 248.795999 52.3979977 248.303003 51.9050026 247.607 51.383 246.794996 50.7449968 245.881505 50.5419988 244.8665 50.774 243.851495 51.0060012 243.141002 51.5859954 242.735 52.514 242.386998 53.2100035 242.155001 53.760998 242.039 54.167 241.922999 54.6310023 241.778001 56.1099875 241.604 58.604 240.965997 66.0280371 236.964037 69.044007 229.598 67.652 227.741991 67.3039983 226.524003 66.5210061 225.944 65.303 225.363997 64.0849939 225.045 62.4610102 224.987 60.431L224.204 18.932C224.146 17.4819928 224.203999 13.2480351 224.378 6.23 224.494001 2.34398057 226.465981.401 230.294.401 246.418081.401 258.133963.66199739 265.442 1.184zM240.038 20.672C240.096 30.5320493 244.387957 33.5770189 252.914 29.807 255.582013 28.6469942 257.510494 26.7620131 258.6995 24.152 259.888506 21.541987 260.048004 18.7870145 259.178 15.887 258.539997 13.5669884 257.003012 11.8270058 254.567 10.667 252.130988 9.5069942 249.260017 9.12999797 245.954 9.536 243.633988 9.76800116 242.068004 10.6089928 241.256 12.059 240.443996 13.5090073 240.038 16.1189812 240.038 19.889L240.038 20.672zM282.581 9.623C282.581 11.5370096 282.378002 19.8164268 281.972 34.4615 281.565998 49.1065732 281.392 58.0819835 281.45 61.388 281.508 63.7660119 282.044495 65.3319962 283.0595 66.086 284.074505 66.8400038 286.118985 67.2459997 289.193 67.304 290.933009 67.3620003 294.557972 67.4634993 300.068 67.6085 305.578028 67.7535007 309.811985 67.8549997 312.77 67.913 319.324033 68.0870009 323.412992 67.5070067 325.037 66.173 326.661008 64.8389933 327.270002 61.6490252 326.864 56.603 326.631999 52.9489817 324.225023 51.0060012 319.643 50.774 319.004997 50.7159997 317.845008 50.6580003 316.163 50.6 314.480992 50.5419997 313.045506 50.4550006 311.8565 50.339 310.667494 50.2229994 309.551005 50.0490012 308.507 49.817 307.230994 49.5849988 305.998506 49.1210035 304.8095 48.425 303.620494 47.7289965 303.026 47.0330035 303.026 46.337 303.026 45.2929948 303.272498 44.5390023 303.7655 44.075 304.258502 43.6109977 304.852997 43.3645001 305.549 43.3355 306.245003 43.3064999 307.230994 43.1760012 308.507 42.944 309.783006 42.7119988 310.942995 42.3060029 311.987 41.726 316.163021 38.4779838 316.685016 35.056018 313.553 31.46 312.392994 30.5899956 310.82701 30.2419991 308.855 30.416 306.88299 30.5900009 305.636003 30.2130046 305.114 29.285 302.619988 26.1529843 303.518979 24.0360055 307.811 22.934 308.681004 22.7599991 310.014991 22.6150006 311.813 22.499 313.263007 22.4409997 314.437496 22.3830003 315.3365 22.325 316.235504 22.2669997 317.163495 22.1655007 318.1205 22.0205 319.077505 21.8754993 319.816997 21.7595004 320.339 21.6725 320.861003 21.5854996 321.411997 21.4115013 321.992 21.1505 322.572003 20.8894987 322.992499 20.6430012 323.2535 20.411 323.514501 20.1789988 323.789999 19.8165025 324.08 19.3235 324.370001 18.8304975 324.5585 18.381002 324.6455 17.975 324.7325 17.568998 324.805 16.9745039 324.863 16.1915 324.921 15.4084961 324.95 14.6690035 324.95 13.973 324.95 13.2769965 324.921 12.3780055 324.863 11.276L324.863 9.71C324.630999 7.27398782 323.920506 5.60650449 322.7315 4.7075 321.542494 3.8084955 319.382016 3.33000029 316.25 3.272L291.542 3.011C287.945982 2.95299971 285.568006 3.34449579 284.408 4.1855 283.247994 5.0265042 282.639 6.83898608 282.581 9.623z"/>
    <g transform="translate(2 72)">
      <path fill="#4A4A4A" d="M32.695 12L44.905 12C47.838348 12 49.8549945 12.4216625 50.955 13.265 52.0550055 14.1083376 52.8983304 15.9599857 53.485 18.82 54.2916707 22.486685 54.7316663 25.5666542 54.805 28.06 55.6850044 38.2533843 56.9683249 54.7532193 58.655 77.56 58.8016674 79.1000077 58.8016674 80.6766586 58.655 82.29 58.5816663 84.7100121 58.0500049 86.3599956 57.06 87.24 56.069995 88.1200044 54.3650121 88.5233337 51.945 88.45 51.1383293 88.45 49.9650077 88.3950006 48.425 88.285 46.8849923 88.1749995 45.748337 88.12 45.015 88.12 41.7149835 87.9733326 39.7716696 86.4700143 39.185 83.61 38.3049956 79.1366443 35.3716916 77.0833315 30.385 77.45 29.1383271 77.5966674 27.2316795 77.67 24.665 77.67 21.0716487 77.7433337 18.7983381 79.6499813 17.845 83.39 17.6249989 84.1966707 17.3683348 84.8749973 17.075 85.425 16.7816652 85.9750028 16.3600027 86.3966652 15.81 86.69 15.2599972 86.9833348 14.7650022 87.2033326 14.325 87.35 13.8849978 87.4966674 13.2433375 87.57 12.4 87.57 11.5566624 87.57 10.8600027 87.5516669 10.31 87.515 9.75999725 87.4783332 8.8983392 87.4050006 7.725 87.295 6.5516608 87.1849995 5.6716696 87.0933337 5.085 87.02 3.9849945 86.8733326 2.9950044 86.4516702 2.115 85.755 1.2349956 85.0583299.8316663 84.2700044.905 83.39 1.4916696 73.5632842 2.518326 58.8967642 3.985 39.39 4.1316674 37.7766586 4.29666575 36.0350094 4.48 34.165 4.66333425 32.2949907 4.8649989 30.2416779 5.085 28.005 5.3050011 25.7683222 5.4883326 23.9900066 5.635 22.67 6.0016685 19.2233161 6.86332655 16.8400066 8.22 15.52 9.57667345 14.1999934 11.9783161 13.3933348 15.425 13.1 20.0450231 12.7333315 25.8016322 12.3666685 32.695 12zM35.445 58.86C35.6650011 57.6133271 35.6650011 56.4400055 35.445 55.34 35.3716663 54.6799967 35.1150022 53.0300132 34.675 50.39 34.2349978 47.7499868 33.9050011 45.696674 33.685 44.23 33.0983304 41.8833216 32.4750033 40.1600055 31.815 39.06 31.2283304 37.9599945 30.5500038 37.3916669 29.78 37.355 29.0099961 37.3183332 28.4050022 37.9233271 27.965 39.17 25.764989 46.8700385 24.3716696 53.1399758 23.785 57.98 23.4916652 59.8133425 23.9316608 61.2066619 25.105 62.16 26.2783392 63.1133381 27.9283227 63.5533337 30.055 63.48 33.1350154 63.4066663 34.9316641 61.8666817 35.445 58.86zM112.335 32.35C112.408334 34.0366751 111.931672 35.5216602 110.905 36.805 109.878328 38.0883397 108.521675 38.8399989 106.835 39.06 104.781656 39.2800011 101.738353 39.5916646 97.705 39.995 93.6716465 40.3983353 90.7016762 40.7099989 88.795 40.93 86.7416564 41.0766674 85.3850033 41.5349961 84.725 42.305 84.0649967 43.0750038 83.735 44.5233227 83.735 46.65 83.735 47.9700066 83.6983337 48.9599967 83.625 49.62 83.625 50.7200055 84.0466624 51.636663 84.89 52.37 85.7333375 53.103337 86.7049945 53.3966674 87.805 53.25 91.9850209 52.6633304 94.4049967 52.8833282 95.065 53.91 95.9450044 55.3033403 96.385 58.7499725 96.385 64.25 96.2383326 66.3033436 95.2850088 67.6233304 93.525 68.21 91.6183238 68.7966696 89.6016773 69.09 87.475 69.09 86.3016608 69.09 85.3116707 69.4933293 84.505 70.3 83.6983293 71.1066707 83.2583337 72.0966608 83.185 73.27 83.185 75.6166784 83.1116674 79.1366432 82.965 83.83 82.8916663 85.5166751 82.5066701 86.7449962 81.81 87.515 81.1133298 88.2850038 79.9216751 88.7066663 78.235 88.78 77.6483304 88.8533337 75.888348 88.89 72.955 88.89 68.7016454 89.1100011 66.208337 88.8716701 65.475 88.175 64.741663 87.4783298 64.4116663 85.0033546 64.485 80.75 64.5583337 76.8633139 64.7416652 71.3267026 65.035 64.14 65.3283348 56.9532974 65.5116663 52.1866784 65.585 49.84 64.9983304 30.3332358 64.6316674 18.7833513 64.485 15.19 64.4116663 13.5766586 65.8049857 12.4766696 68.665 11.89 71.5250143 11.3033304 74.3849857 11.1199989 77.245 11.34L81.645 11.56C84.3583469 11.56 88.4466393 11.4866674 93.91 11.34 99.3733606 11.1933326 103.498319 11.0833337 106.285 11.01 107.751674 11.01 108.998328 11.5233282 110.025 12.55 111.051672 13.5766718 111.565 14.823326 111.565 16.29 111.711667 22.3766971 111.968331 27.7299769 112.335 32.35zM145.775 88.89C154.648378 88.89 159.414997 88.8533337 160.075 88.78 161.981676 88.6333326 163.338329 88.1383376 164.145 87.295 164.951671 86.4516625 165.391666 85.0766762 165.465 83.17 165.905002 64.6899076 166.198333 50.683381 166.345 41.15 166.418334 38.7299879 166.80333 37.0983375 167.5 36.255 168.19667 35.4116624 169.718322 34.8800011 172.065 34.66L184.825 32.57C187.611681 32.2766652 189.389996 31.6350049 190.16 30.645 190.930004 29.654995 191.205001 27.693348 190.985 24.76 190.618331 19.4799736 190.361667 13.5033667 190.215 6.83 190.215 4.4833216 189.848337 2.9066707 189.115 2.1 188.381663 1.2933293 186.878345.89 184.605.89 182.551656.9633337 178.738361 1.0733326 173.165 1.22 167.591639 1.3666674 163.008351 1.4766663 159.415 1.55L124.105 1.55C121.758322 1.55 120.071672 2.00832875 119.045 2.925 118.018328 3.84167125 117.468334 5.4733216 117.395 7.82 117.101665 15.4467048 116.881667 23.1832941 116.735 31.03 116.735 33.230011 117.119996 34.7333293 117.89 35.54 118.660004 36.3466707 120.181655 36.7866663 122.455 36.86L131.585 38.07C134.078346 38.2900011 135.728329 38.8399956 136.535 39.72 137.341671 40.6000044 137.671667 42.2866542 137.525 44.78 136.791663 64.2134305 136.388334 75.8733139 136.315 79.76 136.315 80.9333392 136.296667 81.8133304 136.26 82.4 136.223333 82.9866696 136.241666 83.6649961 136.315 84.435 136.388334 85.2050038 136.425 85.7549983 136.425 86.085 136.425 86.4150016 136.553332 86.7999978 136.81 87.24 137.066668 87.6800022 137.249999 87.9733326 137.36 88.12 137.470001 88.2666674 137.781664 88.4316657 138.295 88.615 138.808336 88.7983342 139.193332 88.9083331 139.45 88.945 139.706668 88.9816668 140.256662 89.0183331 141.1 89.055 141.943338 89.0916669 142.621664 89.0916669 143.135 89.055 143.648336 89.0183331 144.528327 88.9633337 145.775 88.89z"/>
      <path fill="#EF5F52" d="M196.925 15.19C196.925 17.6100121 196.668336 28.0782408 196.155 46.595 195.641664 65.1117592 195.421666 76.4599791 195.495 80.64 195.568334 83.6466817 196.24666 85.6266619 197.53 86.58 198.81334 87.5333381 201.398314 88.0466663 205.285 88.12 207.485011 88.1933337 212.068299 88.3216657 219.035 88.505 226.001702 88.6883342 231.354981 88.8166663 235.095 88.89 243.381708 89.1100011 248.551656 88.3766751 250.605 86.69 252.658344 85.0033249 253.428336 80.9700319 252.915 74.59 252.621665 69.9699769 249.578362 67.5133348 243.785 67.22 242.978329 67.1466663 241.511677 67.0733337 239.385 67 237.258323 66.9266663 235.443341 66.8166674 233.94 66.67 232.436659 66.5233326 231.025007 66.3033348 229.705 66.01 228.091659 65.7166652 226.533341 65.1300044 225.03 64.25 223.526659 63.3699956 222.775 62.4900044 222.775 61.61 222.775 60.2899934 223.086664 59.3366696 223.71 58.75 224.333336 58.1633304 225.084996 57.8516669 225.965 57.815 226.845004 57.7783332 228.091659 57.6133348 229.705 57.32 231.318341 57.0266652 232.784993 56.513337 234.105 55.78 239.385026 51.6733128 240.04502 47.3466894 236.085 42.8 234.618326 41.6999945 232.638346 41.2599989 230.145 41.48 227.651654 41.7000011 226.075003 41.2233392 225.415 40.05 222.261651 36.0899802 223.398306 33.4133403 228.825 32.02 229.925006 31.7999989 231.611655 31.6166674 233.885 31.47 235.718343 31.3966663 237.203328 31.3233337 238.34 31.25 239.476672 31.1766663 240.649994 31.0483343 241.86 30.865 243.070006 30.6816658 244.004997 30.5350006 244.665 30.425 245.325003 30.3149995 246.021663 30.0950017 246.755 29.765 247.488337 29.4349984 248.019998 29.1233348 248.35 28.83 248.680002 28.5366652 249.028332 28.0783365 249.395 27.455 249.761669 26.8316636 249.999999 26.2633359 250.11 25.75 250.220001 25.2366641 250.311666 24.485005 250.385 23.495 250.458334 22.5049951 250.495 21.5700044 250.495 20.69 250.495 19.8099956 250.458334 18.6733403 250.385 17.28L250.385 15.3C250.091665 12.2199846 249.193341 10.1116724 247.69 8.975 246.186659 7.83832765 243.45502 7.2333337 239.495 7.16L208.255 6.83C203.708311 6.7566663 200.701674 7.25166135 199.235 8.315 197.768326 9.37833865 196.998334 11.6699824 196.925 15.19zM309.675 4.52C313.63502 4.8133348 317.044986 6.3533194 319.905 9.14 322.765014 11.9266806 324.378332 15.2999802 324.745 19.26 324.965001 21.3866773 325.111666 24.4849796 325.185 28.555 325.258334 32.6250203 325.368333 35.5766575 325.515 37.41 325.955002 44.9633711 322.765034 51.0866432 315.945 55.78 312.131648 58.4200132 310.023335 60.6383243 309.62 62.435 309.216665 64.2316756 310.041656 67.2199791 312.095 71.4L316.935 81.08C318.91501 85.2600209 317.705022 87.4966652 313.305 87.79 312.571663 87.8633337 311.178344 87.9 309.125 87.9L304.945 87.9C300.324977 88.1200011 296.951677 86.1400209 294.825 81.96 294.531665 81.3733304 293.725007 79.5766817 292.405 76.57 291.084993 73.5633183 289.948338 71.326674 288.995 69.86 288.628332 69.2733304 288.005004 68.6500033 287.125 67.99 286.098328 67.1833293 284.94334 66.9266652 283.66 67.22 282.37666 67.5133348 281.478336 68.2466608 280.965 69.42 280.524998 70.3000044 280.231667 70.9966641 280.085 71.51 279.938333 72.0966696 279.755001 73.9666509 279.535 77.12 278.728329 86.5067136 273.66838 90.3200088 264.355 88.56 262.008322 88.1199978 260.468337 87.1300077 259.735 85.59 259.001663 84.0499923 258.598334 81.9966795 258.525 79.43L257.535 26.96C257.461666 25.1266575 257.534999 19.7733777 257.755 10.9 257.901667 5.9866421 260.394976 3.53 265.235 3.53 285.621769 3.53 300.434954 3.8599967 309.675 4.52zM277.555 29.16C277.628334 41.626729 283.054946 45.4766905 293.835 40.71 297.20835 39.243326 299.646659 36.8600165 301.15 33.56 302.653341 30.2599835 302.855006 26.776685 301.755 23.11 300.948329 20.176652 299.005015 17.976674 295.925 16.51 292.844985 15.043326 289.215021 14.5666641 285.035 15.08 282.101652 15.3733348 280.121672 16.4366575 279.095 18.27 278.068328 20.1033425 277.555 23.4033095 277.555 28.17L277.555 29.16z"/>
    </g>
  </g>
</svg>
