<svg xmlns="http://www.w3.org/2000/svg" width="261" height="333" viewBox="0 0 261 333">
  <g fill="none" fill-rule="evenodd">
    <g fill-rule="nonzero" transform="translate(48)">
      <path fill="#4A4A4A" d="M133.350649 151L16.995671 151C7.84415584 151 0 157.82 0 166.5 0 175.18 7.19047619 182 16.995671 182L134.004329 182C143.155844 182 151 175.18 151 166.5 151 157.82 143.155844 151 133.350649 151zM80 81.2473118L80 134.88172C80 136.752688 81.2571429 138 83.1428571 138L98.8571429 138C100.742857 138 102 136.752688 102 134.88172L99.4857143 80C93.2 81.8709677 86.2857143 82.4946237 80 81.2473118zM56.974359 81.0203046C54.7179487 83.7411168 51.3333333 86.4619289 48.5128205 88.5025381L44 142.918782C44 144.959391 45.1282051 147 46.8205128 147L63.1794872 147C64.8717949 147 66 145.639594 66 143.598985L66 83.7411168C63.7435897 83.0609137 62.0512821 82.3807107 60.3589744 81.0203046 59.2307692 79.6598985 57.5384615 79.6598985 56.974359 81.0203046zM30.5555556 89C29.9444444 89 28.7222222 89 28.1111111 89.654321 27.5 90.308642 26.8888889 90.962963 26.8888889 91.617284L22 138.074074C22 138.728395 22 140.037037 22.6111111 140.691358 23.2222222 141.345679 24.4444444 142 25.0555556 142 25.0555556 142 32.3888889 142 36.0555556 142 37.8888889 142 39.1111111 140.691358 39.1111111 139.382716L44 89C41.5555556 89 39.1111111 89.654321 36.0555556 89.654321 34.2222222 89.654321 32.3888889 89.654321 30.5555556 89zM142.6 58C140.666667 58 139.377778 59.2923077 138.733333 60.5846154 138.733333 62.5230769 140.022222 63.8153846 141.311111 64.4615385 147.755556 65.1076923 152.911111 73.5076923 152.911111 80.6153846L152.911111 109.692308C152.911111 123.261538 138.733333 134.246154 125.844444 135.538462L121.333333 79.9692308C121.333333 79.3230769 120.688889 78.0307692 120.044444 78.0307692 119.4 78.0307692 118.111111 77.3846154 117.466667 77.3846154 114.888889 78.0307692 111.666667 77.3846154 108.444444 76.7384615 107.8 76.7384615 106.511111 76.7384615 105.866667 77.3846154 104.577778 78.0307692 103.288889 78.6769231 102 79.3230769 102 79.3230769 103.933333 126.492308 104.577778 138.769231 104.577778 140.707692 105.866667 142 107.8 142L123.266667 142C123.266667 142 123.266667 142 123.266667 142 123.266667 142 123.266667 142 123.911111 142 123.911111 142 123.911111 142 124.555556 142 140.666667 142 160 127.784615 160 109.692308L160 80.6153846C160 70.9230769 152.911111 59.2923077 142.6 58z"/>
      <path fill="#EF5F52" d="M38.025,84 C48.345,84 58.02,78.1846154 63.18,69.7846154 C76.725,80.1230769 96.72,80.1230769 110.265,69.1384615 C112.845,70.4307692 115.425,71.0769231 118.65,71.0769231 C129.615,71.0769231 138,62.6769231 138,51.6923077 C138,43.2923077 132.84,36.1846154 124.455,33.6 C121.875,14.2153846 105.75,0 86.4,0 C68.985,0 54.15,11.6307692 48.99,28.4307692 C45.765,26.4923077 41.895,25.8461538 38.025,25.8461538 C21.9,25.8461538 9,38.7692308 9,54.9230769 C9,71.0769231 21.9,84 38.025,84 Z"/>
    </g>
    <g transform="translate(0 189)">
      <g transform="translate(44)">
        <path fill="#4A4A4A" d="M1.09376442,7.50027941 C1.09376442,8.99208099 0.931756428,15.4451562 0.607735577,26.8596985 C0.283714726,38.2742409 0.14485073,45.2697812 0.191139423,47.8465294 C0.237428116,49.6999799 0.665592104,50.9205265 1.47564423,51.5082059 C2.28569636,52.0958853 3.91734831,52.4123233 6.37064904,52.4575294 C7.75930983,52.5027355 10.6523097,52.581845 15.0497356,52.6948603 C19.4471614,52.8078756 22.8261853,52.8869851 25.1869087,52.9321912 C30.417531,53.0678095 33.6808349,52.6157552 34.9769183,51.5760147 C36.2730017,50.5362742 36.7590257,48.0499755 36.4350048,44.1170441 C36.24985,41.2690593 34.3288981,39.7546774 30.6720913,39.5738529 C30.1629157,39.5286468 29.2371558,39.4834414 27.8947837,39.4382353 C26.5524116,39.3930292 25.4067836,39.325221 24.4578654,39.2348088 C23.5089472,39.1443966 22.6179032,39.0087803 21.7847067,38.8279559 C20.7663555,38.6471314 19.7827355,38.285488 18.8338173,37.7430147 C17.8848991,37.2005414 17.4104471,36.6580762 17.4104471,36.1156029 C17.4104471,35.301893 17.6071711,34.7142224 18.000625,34.3525735 C18.3940789,33.9909247 18.8685309,33.7988016 19.4239952,33.7761985 C19.9794595,33.7535955 20.7663555,33.6518833 21.7847067,33.4710588 C22.803058,33.2902344 23.7288179,32.9737964 24.5620144,32.5217353 C27.8948003,29.9901932 28.3113923,27.3230728 25.8118029,24.5202941 C24.886029,23.8422025 23.6362531,23.5709699 22.0624375,23.7065882 C20.4886219,23.8422066 19.49343,23.5483713 19.0768317,22.8250735 C17.0864179,20.3839437 17.8038819,18.7339455 21.2292452,17.8750294 C21.9235756,17.7394111 22.9881996,17.6263975 24.423149,17.5359853 C25.5803664,17.4907792 26.5176983,17.4455738 27.2351731,17.4003676 C27.9526478,17.3551615 28.6932558,17.276052 29.4570192,17.1630368 C30.2207827,17.0500215 30.8109546,16.9596106 31.2275529,16.8918015 C31.6441511,16.8239923 32.0838871,16.688376 32.546774,16.4849485 C33.009661,16.281521 33.345249,16.089398 33.5535481,15.9085735 C33.7618472,15.7277491 33.9817152,15.4452152 34.2131587,15.0609632 C34.4446021,14.6767113 34.5950381,14.3263692 34.6644712,14.0099265 C34.7339042,13.6934837 34.7917642,13.2301281 34.8380529,12.6198456 C34.8843416,12.0095631 34.9074856,11.4331939 34.9074856,10.8907206 C34.9074856,10.3482473 34.8843416,9.64756312 34.8380529,8.78864706 L34.8380529,7.56808824 C34.6528981,5.66943168 34.0858701,4.36977556 33.1369519,3.66908088 C32.1880337,2.9683862 30.4638058,2.5954414 27.9642163,2.55023529 L8.24533173,2.34680882 C5.37543277,2.30160272 3.47762482,2.60673937 2.55185096,3.26222794 C1.6260771,3.91771651 1.14005312,5.33038621 1.09376442,7.50027941 Z M72.262274,0.922823529 C74.7618635,1.10364796 76.9142554,2.052962 78.7195144,3.77079412 C80.5247734,5.48862624 81.5431094,7.56807603 81.7745529,10.0092059 C81.913419,11.320183 82.005995,13.2301125 82.0522837,15.7390515 C82.0985723,18.2479905 82.1680043,20.0675091 82.2605817,21.1976618 C82.5383139,25.8538909 80.5247859,29.6285444 76.2199375,32.5217353 C73.8129255,34.1491552 72.4821455,35.5166195 72.2275577,36.6241691 C71.9729699,37.7317188 72.4937099,39.5738401 73.7897933,42.1505882 L76.8448317,48.1177647 C78.0946264,50.6945129 77.3308745,52.0732785 74.5535529,52.2541029 C74.090666,52.299309 73.211194,52.3219118 71.9151106,52.3219118 L69.2766683,52.3219118 C66.3604806,52.4575301 64.2312327,51.2369835 62.8888606,48.6602353 C62.7037058,48.2985864 62.1945378,47.1910534 61.3613413,45.3376029 C60.5281449,43.4841525 59.8106809,42.1053869 59.2089279,41.2012647 C58.9774844,40.8396158 58.5840364,40.4553697 58.0285721,40.0485147 C57.3805304,39.5512475 56.6514944,39.3930285 55.8414423,39.5738529 C55.0313902,39.7546774 54.4643622,40.2067317 54.1403413,40.9300294 C53.8626092,41.4725027 53.6774572,41.9019543 53.5848798,42.2183971 C53.4923024,42.5800459 53.3765824,43.7327844 53.2377163,45.6766471 C52.7285407,51.4630289 49.5346688,53.8137113 43.6560048,52.7287647 C42.1747666,52.4575281 41.2027187,51.8472547 40.7398317,50.8979265 C40.2769448,49.9485982 40.0223608,48.6828461 39.9760721,47.1006324 L39.3511779,14.7558235 C39.3048892,13.6256708 39.3511772,10.3256744 39.4900433,4.85573529 C39.5826207,1.82692603 41.1564126,0.312544118 44.2114663,0.312544118 C57.079723,0.312544118 66.4298987,0.515968554 72.262274,0.922823529 Z M51.9879279,16.112 C52.0342166,23.7970384 55.4595285,26.1703235 62.2639663,23.2319265 C64.3932462,22.3278043 65.9323222,20.8586278 66.8812404,18.8243529 C67.8301586,16.7900781 67.9574506,14.6428201 67.2631202,12.3825147 C66.7539446,10.5742704 65.5273126,9.21810746 63.5831875,8.31398529 C61.6390624,7.40986313 59.3478065,7.11602783 56.709351,7.43247059 C54.8578032,7.61329502 53.6080273,8.26877376 52.9599856,9.39892647 C52.3119439,10.5290792 51.9879279,12.5633235 51.9879279,15.5017206 L51.9879279,16.112 Z" transform="translate(84)"/>
        <g fill="#EF5F52" transform="translate(0 3)">
          <path d="M30.7200441 24.6850303C33.7599417 25.4161855 36.2586079 26.7528085 38.2161176 28.6949394 40.1736274 30.6370703 41.3596303 32.7391099 41.7741618 35.0011212 42.1886932 37.2631325 41.7856826 39.5479582 40.5651176 41.8556667 39.3445527 44.1633752 37.3525285 46.0255081 34.5889853 47.4421212 32.0096783 48.76734 28.2789509 49.7726632 23.3966912 50.4581212 18.5144315 51.1435792 13.7243617 51.3720617 9.02633824 51.1435758 6.72338554 51.0064842 4.77741971 50.2639158 3.18838235 48.9158485 1.599345 47.5677811.781809054 45.9798273.73575 44.1519394L1.28845588 8.16557576C1.33451494 6.65756822 2.0023612 5.34379348 3.29201471 4.22421212 4.58166821 3.10463077 6.17068173 2.47630372 8.05910294 2.33921212L8.26636765 2.33921212C13.9316313 2.56769811 19.2974305 3.13890452 24.3639265 4.05284848 26.9892925 4.50982047 29.0388897 5.57226439 30.5127794 7.24021212 31.9866691 8.90815985 32.7236029 10.9302305 32.7236029 13.3064848 32.769662 14.8144924 32.4242243 16.1968119 31.6872794 17.4534848 30.9503346 18.7101578 30.1903716 19.6583604 29.4073676 20.2981212 28.6243637 20.937882 27.9795467 21.5319367 27.4728971 22.080303 26.9662475 22.6286694 26.9432183 23.0970587 27.4038088 23.4854848 27.8643994 23.873911 28.9698001 24.2737555 30.7200441 24.6850303zM14.0697794 10.1533939C13.1485983 10.1990911 12.6074126 10.5646632 12.4462059 11.2501212 12.2849992 11.9355792 12.2965138 12.7352682 12.48075 13.6492121 12.5728681 16.7566216 13.6091813 18.2417583 15.5897206 18.1046667 17.9847914 17.9675751 19.1362505 16.6880727 19.0441324 14.2661212 19.0441324 13.0779941 18.5835487 12.095519 17.6623676 11.3186667 16.7411866 10.5418143 15.5436691 10.1533939 14.0697794 10.1533939zM15.8660735 43.3979394C17.8926719 43.4436366 19.4816854 42.940975 20.6331618 41.8899394 21.7846381 40.8389038 22.3373385 39.4451602 22.2912794 37.7086667 22.1991613 35.9264759 21.5082859 34.418491 20.2186324 33.1846667 18.9289788 31.9508423 17.4090529 31.3796359 15.6588088 31.4710303 15.1061002 31.5167275 14.6224874 31.5966964 14.2079559 31.7109394 13.7934244 31.8251824 13.4364721 31.9394237 13.1370882 32.0536667 12.8377044 32.1679097 12.595898 32.373544 12.4116618 32.6705758 12.2274255 32.9676075 12.0777359 33.184666 11.9625882 33.3217576 11.8474406 33.4588492 11.7668385 33.7558765 11.7207794 34.2128485 11.6747204 34.6698205 11.6516912 34.9554237 11.6516912 35.0696667L11.6516912 36.9546667C11.6516912 39.4680126 11.9050122 41.1702077 12.4116618 42.061303 12.9183114 42.9523984 14.0697704 43.3979394 15.8660735 43.3979394zM45.5049265 5.21812121C45.5049265 6.72612875 45.3437222 13.2493059 45.0213088 24.7878485 44.6988954 36.326391 44.5607204 43.3979264 44.6067794 46.0026667 44.6528385 47.8762518 45.0788783 49.1100576 45.8849118 49.7041212 46.6909452 50.2981848 48.3145025 50.6180604 50.7556324 50.6637576 52.137404 50.7094548 55.0160517 50.7894237 59.3916618 50.9036667 63.7672719 51.0179097 67.1295324 51.0978786 69.4785441 51.1435758 74.6832172 51.2806674 77.9303318 50.8237022 79.2199853 49.7726667 80.5096388 48.7216311 80.9932516 46.2083229 80.6708382 42.2326667 80.486602 39.3537432 78.57518 37.82291 74.9365147 37.6401212 74.4298651 37.594424 73.5086979 37.5487275 72.1729853 37.5030303 70.8372727 37.4573331 69.6973283 37.3887883 68.7531176 37.2973939 67.808907 37.2059995 66.9222836 37.06891 66.0932206 36.8861212 65.0799214 36.7033324 64.1011812 36.3377603 63.1569706 35.7893939 62.21276 35.2410276 61.7406618 34.6926694 61.7406618 34.144303 61.7406618 33.3217535 61.9364098 32.7276988 62.3279118 32.3621212 62.7194137 31.9965436 63.1915119 31.8023334 63.7442206 31.7794848 64.2969292 31.7566362 65.0799214 31.6538191 66.0932206 31.4710303 67.1065198 31.2882415 68.027687 30.9683659 68.85675 30.5113939 72.1730019 27.9523508 72.5875271 25.2562566 70.1003382 22.4230303 69.1791572 21.7375723 67.9355814 21.4633933 66.3695735 21.6004848 64.8035657 21.7375764 63.8133109 21.4405491 63.3987794 20.7093939 61.4182401 18.2417452 62.1321447 16.5738225 65.5405147 15.7055758 66.2314005 15.5684842 67.2907429 15.4542429 68.7185735 15.3628485 69.8700499 15.3171513 70.8027317 15.2714548 71.5166471 15.2257576 72.2305624 15.1800604 72.9674962 15.1000915 73.7274706 14.9858485 74.487445 14.8716055 75.0746891 14.7802125 75.4892206 14.7116667 75.9037521 14.6431209 76.3413065 14.5060313 76.8018971 14.3003939 77.2624876 14.0947565 77.5964107 13.9005464 77.8036765 13.7177576 78.0109422 13.5349688 78.2297194 13.2493656 78.4600147 12.8609394 78.69031 12.4725132 78.8399997 12.1183652 78.9090882 11.7984848 78.9781768 11.4786045 79.0357498 11.0102152 79.0818088 10.393303 79.1278679 9.77639085 79.1508971 9.19376032 79.1508971 8.64539394 79.1508971 8.09702756 79.1278679 7.38873161 79.0818088 6.52048485L79.0818088 5.28666667C78.8975726 3.36738434 78.3333577 2.0536096 77.3891471 1.34530303 76.4449365.636996458 74.7292624.260000228 72.2420735.21430303L52.6210147.00866666667C49.7653534-.0370305315 47.8769605.271420929 46.9557794.934030303 46.0345983 1.59663968 45.5509855 3.0246557 45.5049265 5.21812121z"/>
        </g>
      </g>
      <g transform="translate(58 82)">
        <g fill="#EF5F52" transform="translate(0 1)">
          <path d="M5.969 12.584C6.09433396 12.8973349 6.28233208 13.116666 6.533 13.242 6.78366792 13.367334 7.03433208 13.5709986 7.285 13.853 7.44166745 14.0096674 7.61399906 14.2211653 7.802 14.4875 7.99000094 14.7538347 8.14666604 14.9966656 8.272 15.216 8.86733631 16.4066726 9.18066651 17.7774922 9.212 19.3285 9.24333349 20.8795078 9.13366792 22.2973269 8.883 23.582 8.72633255 24.4593377 8.54616769 25.1094979 8.3425 25.5325 8.13883232 25.9555021 7.77066933 26.3706646 7.238 26.778 6.32932879 27.4986703 5.37367168 27.8981663 4.371 27.9765 3.36832832 28.0548337 2.36567168 27.8903354 1.363 27.483.89299765 27.2949991.62666698 27.138334.564 27.013.50133302 26.887666.50133302 26.5430028.564 25.979.62666698 22.0936472.70499953 18.216186.799 14.3465.89300047 10.476814.97133302 6.61501927 1.034 2.761 1.034 2.22833067 1.01050024 1.78966839.9635 1.445.916499765 1.10033161.932166275.83400094 1.0105.646 1.08883373.45799906 1.27683185.340500235 1.5745.2935 1.87216816.246499765 2.36566322.23866651 3.055.27 5.93768108.42666745 7.59833114 2.02465147 8.037 5.064 8.09966698 5.47133537 8.11533349 6.06666275 8.084 6.85 8.05266651 7.63333725 7.96650071 8.424496 7.8255 9.2235 7.6844993 10.022504 7.46516816 10.7431635 7.1675 11.3855 6.86983185 12.0278365 6.47033584 12.4273326 5.969 12.584zM2.209 26.308C2.67900235 26.2766665 3.11766463 26.2688333 3.525 26.2845 3.93233537 26.3001667 4.31616487 26.2845002 4.6765 26.2375 5.03683514 26.1904998 5.3736651 26.0573344 5.687 25.838 6.0003349 25.6186656 6.29799859 25.2426693 6.58 24.71 6.98733537 23.9893297 7.22233302 23.2765035 7.285 22.5715 7.34766698 21.8664965 7.44166604 21.0126717 7.567 20.01 7.59833349 19.5086642 7.59050024 18.9290033 7.5435 18.271 7.49649977 17.6129967 7.37116769 16.9785031 7.1675 16.3675 6.96383232 15.7564969 6.65833537 15.2316689 6.251 14.793 5.84366463 14.3543311 5.31100329 14.0880005 4.653 13.994 4.3396651 13.9626665 4.11250071 13.9704998 3.9715 14.0175 3.8304993 14.0645002 3.69733396 14.119333 3.572 14.182 3.44666604 14.244667 3.30566745 14.2916665 3.149 14.323 2.99233255 14.3543335 2.72600188 14.3230005 2.35 14.229L2.209 26.308zM2.773 2.15C2.74166651 2.30666745 2.70250024 2.64349741 2.6555 3.1605 2.60849977 3.67750258 2.56933349 4.28066322 2.538 4.97 2.50666651 5.65933678 2.48316675 6.38782949 2.4675 7.1555 2.45183326 7.9231705 2.43616675 8.65166322 2.4205 9.341 2.40483326 10.0303368 2.38916675 10.6413307 2.3735 11.174 2.35783326 11.7066693 2.36566651 12.0669991 2.397 12.255 2.89833584 12.0983325 3.35266463 11.9808337 3.76 11.9025 4.16733537 11.8241663 4.53549836 11.6518347 4.8645 11.3855 5.19350165 11.1191653 5.49116534 10.6805031 5.7575 10.0695 6.02383467 9.45849694 6.25099906 8.51067309 6.439 7.226 6.56433396 6.53666322 6.57216722 5.82383701 6.4625 5.0875 6.35283279 4.35116298 6.17266792 3.70100282 5.922 3.137 5.82799953 2.88633208 5.65566792 2.67483419 5.405 2.5025 5.15433208 2.3301658 4.88016816 2.19700047 4.5825 2.103 4.28483185 2.00899953 3.97150165 1.962 3.6425 1.962 3.31349836 1.962 3.02366792 2.02466604 2.773 2.15zM18.283 27.577C18.0949991 27.6710005 17.6720033 27.7414998 17.014 27.7885 16.3559967 27.8355002 15.6510038 27.8511667 14.899 27.8355 14.1469962 27.8198333 13.43417 27.7728337 12.7605 27.6945 12.08683 27.6161663 11.6560009 27.4830009 11.468 27.295 11.2799991 27.169666 11.1625002 26.5586721 11.1155 25.462 11.0684998 24.3653278 11.0528333 23.0101747 11.0685 21.3965 11.0841667 19.7828253 11.1311663 18.0438427 11.2095 16.1795 11.2878337 14.3151573 11.3739995 12.5448417 11.468 10.8685 11.5620005 9.19215828 11.6638328 7.7273396 11.7735 6.474 11.8831672 5.2206604 11.9849995 4.42166839 12.079 4.077 12.2983344 3.23099577 12.6978304 2.4946698 13.2775 1.868 13.8571696 1.2413302 14.4916632.81833443 15.181.599 15.8703368.37966557 16.5753297.434498355 17.296.7635 18.0166703 1.09250164 18.6276642 1.78966134 19.129 2.855 19.5990024 3.85767168 19.834 4.75066275 19.834 5.534 19.834 6.31733725 19.771334 7.24166134 19.646 8.307 19.2386646 8.58900141 18.9253344 8.69083372 18.706 8.6125 18.4866656 8.53416627 18.2046684 8.30700188 17.86 7.931 17.797333 7.83699953 17.8129995 7.64900141 17.907 7.367 18.0010005 7.08499859 18.0871663 6.74816862 18.1655 6.3565 18.2438337 5.96483137 18.2751667 5.53400235 18.2595 5.064 18.2438333 4.59399765 18.1106679 4.10833584 17.86 3.607 17.734666 3.35633208 17.5545012 3.11350117 17.3195 2.8785 17.0844988 2.64349882 16.8260014 2.4555007 16.544 2.3145 16.2619986 2.17349929 15.9643349 2.11866651 15.651 2.15 15.3376651 2.18133349 15.0400014 2.33799859 14.758 2.62 14.3819981 2.99600188 14.0921677 3.59132926 13.8885 4.406 13.6848323 5.22067074 13.5360005 6.10582855 13.442 7.0615 13.3479995 8.01717144 13.2853335 8.97282855 13.254 9.9285 13.2226665 10.8841714 13.1913335 11.7066632 13.16 12.396 13.7866698 12.5526674 14.3819972 12.6231667 14.946 12.6075 15.5100028 12.5918333 16.1993293 12.552667 17.014 12.49 17.3586684 12.427333 17.7424979 12.3881667 18.1655 12.3725 18.5885021 12.3568333 18.8783326 12.4743321 19.035 12.725 19.3483349 13.1323354 19.442334 13.4456656 19.317 13.665 19.191666 13.8843344 18.9410019 14.056666 18.565 14.182 18.1889981 14.307334 17.7268361 14.3856665 17.1785 14.417 16.6301639 14.4483335 16.0975026 14.464 15.5805 14.464L14.147 14.464C13.7083311 14.464 13.4106675 14.4796665 13.254 14.511 13.2226665 14.6050005 13.1835002 14.9574969 13.1365 15.5685 13.0894998 16.1795031 13.0503335 16.9001625 13.019 17.7305 12.9876665 18.5608375 12.972 19.4538286 12.972 20.4095 12.972 21.3651714 12.9798333 22.2581625 12.9955 23.0885 13.0111667 23.9188375 13.0424998 24.6081639 13.0895 25.1565 13.1365002 25.7048361 13.2069995 25.9946665 13.301 26.026 13.3323335 26.026 13.3558333 26.0338333 13.3715 26.0495 13.3871667 26.0651667 13.4106665 26.073 13.442 26.073L16.45 25.979C16.7946684 25.979 17.1001653 25.9868333 17.3665 26.0025 17.6328347 26.0181667 17.8521658 26.0729995 18.0245 26.167 18.1968342 26.2610005 18.3064998 26.4176656 18.3535 26.637 18.4005002 26.8563344 18.3770005 27.1696646 18.283 27.577z"/>
        </g>
        <g fill="#4A4A4A" transform="translate(21)">
          <path d="M1.607 1.834C2.29633678 1.73999953 3.05616251 1.67733349 3.8865 1.646 4.71683748 1.61466651 5.52366275 1.65383278 6.307 1.7635 7.09033725 1.87316721 7.7953302 2.10816486 8.422 2.4685 9.0486698 2.82883513 9.50299859 3.35366322 9.785 4.043 10.1296684 4.92033772 10.3724993 5.72716298 10.5135 6.4635 10.6545007 7.19983701 10.6780005 8.00666228 10.584 8.884 10.521333 9.38533584 10.3803344 9.73783231 10.161 9.9415 9.94166557 10.1451677 9.72233443 10.215667 9.503 10.153 9.28366557 10.090333 9.11133396 9.87883513 8.986 9.5185 8.86066604 9.15816486 8.84499953 8.6646698 8.939 8.038 8.939 7.94399953 8.94683325 7.81083419 8.9625 7.6385 8.97816674 7.4661658 8.97033349 7.2233349 8.939 6.91 8.87633302 6.03266228 8.67266839 5.24933678 8.328 4.56 7.98333161 3.87066322 7.35667121 3.49466698 6.448 3.432 5.75866322 3.36933302 5.20250211 3.32233349 4.7795 3.291 4.35649788 3.25966651 4.02750117 3.28316627 3.7925 3.3615 3.55749882 3.43983372 3.40083372 3.59649882 3.3225 3.8315 3.24416627 4.06650117 3.18933349 4.40333114 3.158 4.842 3.09533302 6.15800658 3.10316627 7.35649459 3.1815 8.4375 3.25983372 9.5185054 3.23633396 10.7326599 3.111 12.08 3.111 12.205334 3.09533349 12.4089986 3.064 12.691 3.03266651 12.9730014 3.017 13.2784984 3.017 13.6075 3.017 13.9365016 3.03266651 14.2341653 3.064 14.5005 3.09533349 14.7668347 3.15799953 14.9469995 3.252 15.041 3.44000094 15.166334 3.64366557 15.229 3.863 15.229 4.08233443 15.229 4.30949882 15.2133335 4.5445 15.182 4.77950117 15.1506665 5.02233208 15.1193335 5.273 15.088 5.52366792 15.0566665 5.75866557 15.0566665 5.978 15.088 6.32266839 15.150667 6.59683231 15.3699981 6.8005 15.746 7.00416768 16.1220019 6.96500141 16.5136646 6.683 16.921 6.52633255 17.0776674 6.35400094 17.156 6.166 17.156 5.97799906 17.156 5.74300141 17.1325002 5.461 17.0855 5.17899859 17.0384998 4.85000188 16.9915002 4.474 16.9445 4.09799812 16.8974998 3.62800282 16.8896665 3.064 16.921 3.00133302 17.0776674 2.94650023 17.4223307 2.8995 17.955 2.85249976 18.4876693 2.81333349 19.0673302 2.782 19.694 2.75066651 20.3206698 2.71933349 20.9316637 2.688 21.527 2.65666651 22.1223363 2.641 22.5453321 2.641 22.796 2.60966651 23.8300052 2.62533302 24.746496 2.688 25.5455 2.75066698 26.344504 2.782 27.0181639 2.782 27.5665 2.782 28.1148361 2.71933396 28.5221653 2.594 28.7885 2.46866604 29.0548347 2.21800188 29.1723335 1.842 29.141 1.37199765 29.1096665 1.08216721 28.8825021.9725 28.4595.862832785 28.0364979.82366651 27.7153344.855 27.496.94900047 27.0259976 1.01166651 26.6656679 1.043 26.415 1.07433349 26.1643321 1.09 25.9293344 1.09 25.71L1.09 23.783C1.12133349 22.6236609 1.16833302 21.1118427 1.231 19.2475 1.29366698 17.3831573 1.34849976 15.4483434 1.3955 13.443 1.44250023 11.4376566 1.47383325 9.52634242 1.4895 7.709 1.50516674 5.89165758 1.48166698 4.45033866 1.419 3.385 1.32499953 2.97766463 1.29366651 2.68000094 1.325 2.492 1.35633349 2.30399906 1.45033255 2.08466792 1.607 1.834zM13.733 4.748C14.0150014 3.90199577 14.4301639 3.17350305 14.9785 2.5625 15.5268361 1.95149694 16.1456632 1.51283466 16.835 1.2465 17.5243368.980165335 18.2293297.92533255 18.95 1.082 19.6706703 1.23866745 20.3129972 1.64599671 20.877 2.304 21.3783358 2.86800282 21.7229991 3.69049459 21.911 4.7715 22.0990009 5.8525054 22.2086665 7.01182714 22.24 8.2495 22.2713335 9.48717286 22.2478337 10.7091606 22.1695 11.9155 22.0911663 13.1218394 22.052 14.1323293 22.052 14.947 22.0206665 15.7303372 21.9971667 16.5763288 21.9815 17.485 21.9658333 18.3936712 21.9345002 19.3179953 21.8875 20.258 21.8404998 21.1980047 21.7778337 22.1144955 21.6995 23.0075 21.6211663 23.9005045 21.519334 24.7073297 21.394 25.428 21.2059991 26.3993382 20.8691691 27.1591639 20.3835 27.7075 19.8978309 28.2558361 19.3416698 28.6318323 18.715 28.8355 18.0883302 29.0391677 17.43817 29.078334 16.7645 28.953 16.09083 28.827666 15.4641696 28.5848351 14.8845 28.2245 14.3048304 27.8641649 13.8191686 27.3863363 13.4275 26.791 13.0358314 26.1956637 12.8243335 25.5376703 12.793 24.817 12.730333 24.2216637 12.6911667 23.3835054 12.6755 22.3025 12.6598333 21.2214946 12.6598333 20.0308398 12.6755 18.7305 12.6911667 17.4301602 12.7224998 16.0671738 12.7695 14.6415 12.8165002 13.2158262 12.8869995 11.8606731 12.981 10.576 13.0750005 9.29132691 13.184666 8.13200517 13.31 7.098 13.435334 6.06399483 13.5763325 5.28066933 13.733 4.748zM14.626 24.817C14.5946665 25.6943377 14.8531639 26.3601644 15.4015 26.8145 15.9498361 27.2688356 16.56083 27.5116665 17.2345 27.543 17.90817 27.5743335 18.5269972 27.3941686 19.091 27.0025 19.6550028 26.6108314 19.937 26.0076707 19.937 25.193 19.937 23.469658 19.9761663 21.7855082 20.0545 20.1405 20.1328337 18.4954918 20.203333 16.874008 20.266 15.276 20.328667 13.677992 20.3834998 12.0721747 20.4305 10.4585 20.4775002 8.84482526 20.4540005 7.19200846 20.36 5.5 20.3286665 4.77932973 20.2346675 4.25450164 20.078 3.9255 19.9213326 3.59649835 19.5923358 3.29100141 19.091 3.009 18.3389962 2.78966557 17.6966693 2.79749882 17.164 3.0325 16.6313307 3.26750117 16.2005016 3.63566416 15.8715 4.137 15.5424984 4.63833584 15.2996675 5.21799671 15.143 5.876 14.9863326 6.53400329 14.876667 7.19199671 14.814 7.85 14.7826665 8.25733537 14.7435002 8.92316204 14.6965 9.8475 14.6494998 10.771838 14.6103335 11.8214941 14.579 12.9965 14.5476665 14.1715059 14.5241667 15.4013269 14.5085 16.686 14.4928333 17.9706731 14.485 19.1691611 14.485 20.2815 14.485 21.3938389 14.4928333 22.3651625 14.5085 23.1955 14.5241667 24.0258375 14.563333 24.5663321 14.626 24.817zM26.47 18.237L26.47 20.164C26.47 20.9786707 26.4621667 21.816829 26.4465 22.6785 26.4308333 23.540171 26.4073335 24.370496 26.376 25.1695 26.3446665 25.968504 26.297667 26.5716646 26.235 26.979 26.235 27.041667 26.2428333 27.1904988 26.2585 27.4255 26.2741667 27.6605012 26.250667 27.8954988 26.188 28.1305 26.125333 28.3655012 25.9921677 28.545666 25.7885 28.671 25.5848323 28.796334 25.2793354 28.7806675 24.872 28.624 24.5273316 28.4359991 24.3315002 28.2401677 24.2845 28.0365 24.2374998 27.8328323 24.245333 27.5430019 24.308 27.167L24.684 20.822C24.746667 19.3179925 24.7858333 17.8845068 24.8015 16.5215L24.8485 12.4325C24.8641667 11.0694932 24.872 9.69084031 24.872 8.2965L24.872 3.902C24.872 3.40066416 24.8798333 2.97766839 24.8955 2.633 24.9111667 2.28833161 24.9659995 2.01416769 25.06 1.8105 25.1540005 1.60683232 25.3184988 1.47366698 25.5535 1.411 25.7885012 1.34833302 26.1253311 1.34833302 26.564 1.411 27.3160038 1.50500047 27.9504974 1.55983326 28.4675 1.5755 28.9845026 1.59116675 29.5563302 1.80266463 30.183 2.21 31.0916712 2.80533631 31.7966642 3.67482762 32.298 4.8185 32.7993358 5.96217239 33.1204993 7.18416017 33.2615 8.4845 33.4025007 9.78483984 33.3633344 11.0773269 33.144 12.362 32.9246656 13.6466731 32.5643358 14.7276623 32.063 15.605 31.8123321 16.0436689 31.4441691 16.4353316 30.9585 16.78 30.4728309 17.1246684 30.0890014 17.4379986 29.807 17.72 29.9636675 18.3466698 30.2221649 19.2083279 30.5825 20.305 30.9428351 21.4016722 31.2483321 22.4983279 31.499 23.595 31.624334 24.1276693 31.7418328 24.6603307 31.8515 25.193 31.9611672 25.7256693 32.0943326 26.2269977 32.251 26.697 32.5330014 27.6370047 32.6035007 28.3341644 32.4625 28.7885 32.3214993 29.2428356 32.1178347 29.4934998 31.8515 29.5405 31.5851653 29.5875002 31.3031682 29.4230019 31.0055 29.047 30.7078318 28.6709981 30.527667 28.1070038 30.465 27.355L29.149 21.151C29.023666 20.7123311 28.9218337 20.3676679 28.8435 20.117 28.7651663 19.8663321 28.694667 19.6626675 28.632 19.506 28.569333 19.3493326 28.4988337 19.1926675 28.4205 19.036 28.3421663 18.8793326 28.2560005 18.6600014 28.162 18.378L26.47 18.237zM26.517 16.498C27.6136722 16.498 28.5066632 16.2551691 29.196 15.7695 29.8853368 15.2838309 30.4023316 14.6571705 30.747 13.8895 31.0916684 13.1218295 31.3031663 12.2601714 31.3815 11.3045 31.4598337 10.3488286 31.4598337 9.42450446 31.3815 8.5315 31.3031663 7.63849553 31.1543344 6.8081705 30.935 6.0405 30.7156656 5.27282949 30.4963344 4.68533537 30.277 4.278 30.1203326 4.02733208 29.9010014 3.80016768 29.619 3.5965 29.3369986 3.39283231 29.0315016 3.24400047 28.7025 3.15 28.3734984 3.05599953 28.0601682 3.01683325 27.7625 3.0325 27.4648318 3.04816674 27.253334 3.13433255 27.128 3.291 27.0339995 3.38500047 26.9635002 3.75316345 26.9165 4.3955 26.8694998 5.03783654 26.8225002 5.81332879 26.7755 6.722 26.7284998 7.63067121 26.6893335 8.61766134 26.658 9.683 26.6266665 10.7483387 26.6031667 11.7588286 26.5875 12.7145 26.5718333 13.6701714 26.5561667 14.4926632 26.5405 15.182 26.5248333 15.8713368 26.517 16.3099991 26.517 16.498zM42.356 28.577C42.1679991 28.6710005 41.7450033 28.7414998 41.087 28.7885 40.4289967 28.8355002 39.7240038 28.8511667 38.972 28.8355 38.2199962 28.8198333 37.50717 28.7728337 36.8335 28.6945 36.15983 28.6161663 35.7290009 28.4830009 35.541 28.295 35.3529991 28.169666 35.2355002 27.5586721 35.1885 26.462 35.1414998 25.3653278 35.1258333 24.0101747 35.1415 22.3965 35.1571667 20.7828253 35.2041663 19.0438427 35.2825 17.1795 35.3608337 15.3151573 35.4469995 13.5448417 35.541 11.8685 35.6350005 10.1921583 35.7368328 8.7273396 35.8465 7.474 35.9561672 6.2206604 36.0579995 5.42166839 36.152 5.077 36.3713344 4.23099577 36.7708304 3.4946698 37.3505 2.868 37.9301696 2.2413302 38.5646632 1.81833443 39.254 1.599 39.9433368 1.37966557 40.6483297 1.43449835 41.369 1.7635 42.0896703 2.09250164 42.7006642 2.78966134 43.202 3.855 43.6720023 4.85767168 43.907 5.75066275 43.907 6.534 43.907 7.31733725 43.844334 8.24166134 43.719 9.307 43.3116646 9.58900141 42.9983344 9.69083372 42.779 9.6125 42.5596656 9.53416627 42.2776684 9.30700188 41.933 8.931 41.870333 8.83699953 41.8859995 8.64900141 41.98 8.367 42.0740005 8.08499859 42.1601663 7.74816862 42.2385 7.3565 42.3168337 6.96483137 42.3481667 6.53400235 42.3325 6.064 42.3168333 5.59399765 42.1836679 5.10833584 41.933 4.607 41.807666 4.35633208 41.6275012 4.11350117 41.3925 3.8785 41.1574988 3.64349882 40.8990014 3.4555007 40.617 3.3145 40.3349986 3.17349929 40.0373349 3.11866651 39.724 3.15 39.4106651 3.18133349 39.1130014 3.33799859 38.831 3.62 38.4549981 3.99600188 38.1651677 4.59132926 37.9615 5.406 37.7578323 6.22067074 37.6090005 7.10582855 37.515 8.0615 37.4209995 9.01717144 37.3583335 9.97282855 37.327 10.9285 37.2956665 11.8841714 37.2643335 12.7066632 37.233 13.396 37.8596698 13.5526674 38.4549972 13.6231667 39.019 13.6075 39.5830028 13.5918333 40.2723293 13.552667 41.087 13.49 41.4316684 13.427333 41.8154979 13.3881667 42.2385 13.3725 42.6615021 13.3568333 42.9513325 13.4743321 43.108 13.725 43.4213349 14.1323354 43.515334 14.4456656 43.39 14.665 43.264666 14.8843344 43.0140019 15.056666 42.638 15.182 42.2619981 15.307334 41.7998361 15.3856665 41.2515 15.417 40.7031639 15.4483335 40.1705026 15.464 39.6535 15.464L38.22 15.464C37.7813311 15.464 37.4836674 15.4796665 37.327 15.511 37.2956665 15.6050005 37.2565002 15.9574969 37.2095 16.5685 37.1624998 17.1795031 37.1233335 17.9001625 37.092 18.7305 37.0606665 19.5608375 37.045 20.4538286 37.045 21.4095 37.045 22.3651714 37.0528333 23.2581625 37.0685 24.0885 37.0841667 24.9188375 37.1154998 25.6081639 37.1625 26.1565 37.2095002 26.7048361 37.2799995 26.9946665 37.374 27.026 37.4053335 27.026 37.4288333 27.0338333 37.4445 27.0495 37.4601667 27.0651667 37.4836665 27.073 37.515 27.073L40.523 26.979C40.8676684 26.979 41.1731653 26.9868333 41.4395 27.0025 41.7058347 27.0181667 41.9251658 27.0729995 42.0975 27.167 42.2698342 27.2610005 42.3794998 27.4176656 42.4265 27.637 42.4735002 27.8563344 42.4500005 28.1696646 42.356 28.577zM56.597 1.693C56.534333 1.91233443 56.4795002 2.02983325 56.4325 2.0455 56.3854998 2.06116674 56.299334 2.16299906 56.174 2.351 56.111333 2.47633396 55.9781677 2.90716298 55.7745 3.6435 55.5708323 4.37983701 55.3358347 5.27282808 55.0695 6.3225 54.8031653 7.37217191 54.5211682 8.49232738 54.2235 9.683 53.9258318 10.8736726 53.6438347 11.9859948 53.3775 13.02 53.1111653 14.0540052 52.8918342 14.9234965 52.7195 15.6285 52.5471658 16.3335035 52.461 16.7329995 52.461 16.827 52.3043325 17.5476703 52.1320009 18.1978304 51.944 18.7775 51.7559991 19.3571696 51.5836674 19.9603302 51.427 20.587L50.487 24.582C50.3303325 25.2086698 50.1423344 25.8196637 49.923 26.415 49.7036656 27.0103363 49.531334 27.6213302 49.406 28.248 49.343333 28.6553354 49.2728337 28.9921653 49.1945 29.2585 49.1161663 29.5248347 48.8576689 29.5796674 48.419 29.423 48.0429981 29.3289995 47.823667 29.1096684 47.761 28.765 47.698333 28.4203316 47.7218328 28.0051691 47.8315 27.5195 47.9411672 27.0338309 48.0978323 26.5011696 48.3015 25.9215 48.5051677 25.3418304 48.6853325 24.7700028 48.842 24.206 49.0300009 23.5793302 49.2023325 22.9370033 49.359 22.279 49.5156674 21.6209967 49.6879991 20.9786698 49.876 20.352L53.918 4.983C54.0746674 4.3563302 54.2469991 3.7296698 54.435 3.103 54.6230009 2.4763302 54.7953325 1.86533631 54.952 1.27 55.0460005.89399812 55.1164998.557168155 55.1635.2595 55.2105002-.038168155 55.4689976-.07733443 55.939.142 56.2210014.26733396 56.424666.4866651 56.55.8 56.675334 1.1133349 56.6910005 1.41099859 56.597 1.693zM61.485 28.53C61.2656656 28.6240005 60.9993349 28.6475002 60.686 28.6005 60.3726651 28.5534998 60.153334 28.4360009 60.028 28.248 59.8399991 27.9973321 59.777333 27.7310014 59.84 27.449 59.902667 27.1669986 59.965333 26.9006679 60.028 26.65 60.153334 25.9606632 60.2864993 25.1303382 60.4275 24.159 60.5685007 23.1876618 60.6938328 22.1928384 60.8035 21.1745 60.9131672 20.1561616 61.0228328 19.1613382 61.1325 18.19 61.2421672 17.2186618 61.328333 16.3726703 61.391 15.652L62.237 8.226C62.4563344 7.06666087 62.7069986 5.93083889 62.989 4.8185 63.2710014 3.7061611 63.7723297 2.8366698 64.493 2.21 64.8690019 1.86533161 65.3546637 1.6225007 65.95 1.4815 66.5453363 1.34049929 67.0623311 1.39533208 67.501 1.646 68.0650028 1.99066839 68.3626665 2.39799765 68.394 2.868 68.4253335 3.33800235 68.4253335 3.99599577 68.394 4.842 68.394 6.15800658 68.3705002 7.48965993 68.3235 8.837 68.2764998 10.1843401 68.2686665 11.5316599 68.3 12.879L68.676 25.146C68.7073335 25.3653344 68.7464998 25.6551649 68.7935 26.0155 68.8405002 26.3758351 68.8796665 26.7439981 68.911 27.12 68.9423335 27.4960019 68.958 27.8484984 68.958 28.1775 68.958 28.5065016 68.926667 28.7493325 68.864 28.906 68.4253311 29.031334 68.0258351 29.0470005 67.6655 28.953 67.3051649 28.8589995 67.125 28.5613358 67.125 28.06L67.125 26.2505C67.125 25.4201625 67.1171667 24.5663377 67.1015 23.689 67.0858333 22.8116623 67.0545002 21.9970038 67.0075 21.245 66.9604998 20.4929962 66.905667 20.0230009 66.843 19.835 66.5609986 19.7409995 66.2241686 19.6783335 65.8325 19.647 65.4408314 19.6156665 65.0491686 19.6 64.6575 19.6 64.2658314 19.6 63.8898351 19.6078333 63.5295 19.6235 63.1691649 19.6391667 62.8480014 19.6626665 62.566 19.694 62.440666 20.4146703 62.3388337 21.1588295 62.2605 21.9265 62.1821663 22.6941705 62.111667 23.4226632 62.049 24.112 62.049 24.2686674 62.017667 24.5741644 61.955 25.0285 61.892333 25.4828356 61.829667 25.9606642 61.767 26.462 61.704333 26.9633358 61.6495002 27.4176646 61.6025 27.825 61.5554998 28.2323354 61.5163335 28.467333 61.485 28.53zM62.754 18.096L64.8925 18.096C65.3468356 18.096 65.7619981 18.0881667 66.138 18.0725 66.5140019 18.0568333 66.7176665 18.049 66.749 18.049 66.7803335 18.0176665 66.8038333 17.6416703 66.8195 16.921 66.8351667 16.2003297 66.843 15.2995054 66.843 14.2185L66.843 7.192C66.843 6.09532785 66.8351667 5.17883701 66.8195 4.4425 66.8038333 3.70616298 66.796 3.32233349 66.796 3.291 66.5453321 3.291 66.2790014 3.36933255 65.997 3.526 65.7149986 3.68266745 65.4956674 3.83933255 65.339 3.996 65.0883321 4.3093349 64.8533344 4.81849647 64.634 5.5235 64.4146656 6.22850352 64.2188342 7.03532879 64.0465 7.944 63.8741658 8.85267121 63.725334 9.82399483 63.6 10.858 63.474666 11.8920052 63.3571672 12.8789953 63.2475 13.819 63.1378328 14.7590047 63.0438337 15.6128295 62.9655 16.3805 62.8871663 17.1481705 62.816667 17.7199981 62.754 18.096zM71.684 1.834C72.3733368 1.73999953 73.1331625 1.67733349 73.9635 1.646 74.7938375 1.61466651 75.6006627 1.65383278 76.384 1.7635 77.1673373 1.87316721 77.8723302 2.10816486 78.499 2.4685 79.1256698 2.82883513 79.5799986 3.35366322 79.862 4.043 80.2066684 4.92033772 80.4494993 5.72716298 80.5905 6.4635 80.7315007 7.19983701 80.7550005 8.00666228 80.661 8.884 80.598333 9.38533584 80.4573344 9.73783231 80.238 9.9415 80.0186656 10.1451677 79.7993344 10.215667 79.58 10.153 79.3606656 10.090333 79.188334 9.87883513 79.063 9.5185 78.937666 9.15816486 78.9219995 8.6646698 79.016 8.038 79.016 7.94399953 79.0238333 7.81083419 79.0395 7.6385 79.0551667 7.4661658 79.0473335 7.2233349 79.016 6.91 78.953333 6.03266228 78.7496684 5.24933678 78.405 4.56 78.0603316 3.87066322 77.4336712 3.49466698 76.525 3.432 75.8356632 3.36933302 75.2795021 3.32233349 74.8565 3.291 74.4334979 3.25966651 74.1045012 3.28316627 73.8695 3.3615 73.6344988 3.43983372 73.4778337 3.59649882 73.3995 3.8315 73.3211663 4.06650117 73.2663335 4.40333114 73.235 4.842 73.172333 6.15800658 73.1801663 7.35649459 73.2585 8.4375 73.3368337 9.5185054 73.313334 10.7326599 73.188 12.08 73.188 12.205334 73.1723335 12.4089986 73.141 12.691 73.1096665 12.9730014 73.094 13.2784984 73.094 13.6075 73.094 13.9365016 73.1096665 14.2341653 73.141 14.5005 73.1723335 14.7668347 73.2349995 14.9469995 73.329 15.041 73.5170009 15.166334 73.7206656 15.229 73.94 15.229 74.1593344 15.229 74.3864988 15.2133335 74.6215 15.182 74.8565012 15.1506665 75.0993321 15.1193335 75.35 15.088 75.6006679 15.0566665 75.8356656 15.0566665 76.055 15.088 76.3996684 15.150667 76.6738323 15.3699981 76.8775 15.746 77.0811677 16.1220019 77.0420014 16.5136646 76.76 16.921 76.6033325 17.0776674 76.4310009 17.156 76.243 17.156 76.0549991 17.156 75.8200014 17.1325002 75.538 17.0855 75.2559986 17.0384998 74.9270019 16.9915002 74.551 16.9445 74.1749981 16.8974998 73.7050028 16.8896665 73.141 16.921 73.078333 17.0776674 73.0235002 17.4223307 72.9765 17.955 72.9294998 18.4876693 72.8903335 19.0673302 72.859 19.694 72.8276665 20.3206698 72.7963335 20.9316637 72.765 21.527 72.7336665 22.1223363 72.718 22.5453321 72.718 22.796 72.6866665 23.8300052 72.702333 24.746496 72.765 25.5455 72.827667 26.344504 72.859 27.0181639 72.859 27.5665 72.859 28.1148361 72.796334 28.5221653 72.671 28.7885 72.545666 29.0548347 72.2950019 29.1723335 71.919 29.141 71.4489976 29.1096665 71.1591672 28.8825021 71.0495 28.4595 70.9398328 28.0364979 70.9006665 27.7153344 70.932 27.496 71.0260005 27.0259976 71.0886665 26.6656679 71.12 26.415 71.1513335 26.1643321 71.167 25.9293344 71.167 25.71L71.167 23.783C71.1983335 22.6236609 71.245333 21.1118427 71.308 19.2475 71.370667 17.3831573 71.4254998 15.4483434 71.4725 13.443 71.5195002 11.4376566 71.5508333 9.52634242 71.5665 7.709 71.5821667 5.89165758 71.558667 4.45033866 71.496 3.385 71.4019995 2.97766463 71.3706665 2.68000094 71.402 2.492 71.4333335 2.30399906 71.5273325 2.08466792 71.684 1.834zM88.557 10.059C88.619667 9.05632832 88.6666665 7.97533913 88.698 6.816 88.7293335 5.65666087 88.713667 4.57567168 88.651 3.573 88.2749981 3.54166651 87.7580033 3.51816675 87.1 3.5025 86.4419967 3.48683326 85.7996698 3.43200047 85.173 3.338 84.5463302 3.24399953 84.0058356 3.10300094 83.5515 2.915 83.0971644 2.72699906 82.8543335 2.46066839 82.823 2.116 82.823 1.83399859 82.9013325 1.67733349 83.058 1.646 83.2146674 1.61466651 83.4183321 1.56766698 83.669 1.505 83.9510014 1.53633349 84.460163 1.53633349 85.1965 1.505 85.932837 1.47366651 86.763162 1.45016675 87.6875 1.4345 88.611838 1.41883326 89.5674951 1.41883326 90.5545 1.4345 91.5415049 1.45016675 92.4579958 1.49716628 93.304 1.5755 94.1500042 1.65383373 94.8549972 1.77133255 95.419 1.928 95.9830028 2.08466745 96.2806665 2.3196651 96.312 2.633 96.2179995 2.85233443 95.9986684 3.00899953 95.654 3.103 95.3093316 3.19700047 94.9176689 3.25966651 94.479 3.291 94.0403311 3.32233349 93.6016689 3.33016675 93.163 3.3145 92.7243311 3.29883325 92.3640014 3.291 92.082 3.291L91.612 3.291C91.486666 3.291 91.3456674 3.30666651 91.189 3.338L90.484 3.62 90.108 16.451C90.108 17.4850052 90.076667 18.5503279 90.014 19.647 89.951333 20.7436722 89.888667 21.8246613 89.826 22.89 89.7946665 23.3913358 89.8024998 24.104162 89.8495 25.0285 89.8965002 25.952838 89.8730005 26.7753297 89.779 27.496 89.716333 28.0600028 89.5753344 28.4516656 89.356 28.671 89.1366656 28.8903344 88.9251677 28.9765002 88.7215 28.9295 88.5178323 28.8824998 88.3376674 28.7336679 88.181 28.483 88.0243325 28.2323321 87.977333 27.8876689 88.04 27.449L88.463 16.31C88.525667 15.2446613 88.5491667 14.2028384 88.5335 13.1845 88.5178333 12.1661616 88.5256665 11.1243387 88.557 10.059z"/>
        </g>
        <g fill="#EF5F52" transform="translate(119 1)">
          <path d="M7.336 27.577C7.14799906 27.6710005 6.72500329 27.7414998 6.067 27.7885 5.40899671 27.8355002 4.70400376 27.8511667 3.952 27.8355 3.19999624 27.8198333 2.48717003 27.7728337 1.8135 27.6945 1.13982996 27.6161663.70900094 27.4830009.521 27.295.33299906 27.169666.215500235 26.5586721.1685 25.462.121499765 24.3653278.105833255 23.0101747.1215 21.3965.137166745 19.7828253.184166275 18.0438427.2625 16.1795.340833725 14.3151573.42699953 12.5448417.521 10.8685.61500047 9.19215828.716832785 7.7273396.8265 6.474.936167215 5.2206604 1.03799953 4.42166839 1.132 4.077 1.35133443 3.23099577 1.75083043 2.4946698 2.3305 1.868 2.91016956 1.2413302 3.54466322.81833443 4.234.599 4.92333678.37966557 5.62832973.434498355 6.349.7635 7.06967027 1.09250164 7.68066416 1.78966134 8.182 2.855 8.65200235 3.85767168 8.887 4.75066275 8.887 5.534 8.887 6.31733725 8.82433396 7.24166134 8.699 8.307 8.29166463 8.58900141 7.97833443 8.69083372 7.759 8.6125 7.53966557 8.53416627 7.25766839 8.30700188 6.913 7.931 6.85033302 7.83699953 6.86599953 7.64900141 6.96 7.367 7.05400047 7.08499859 7.14016627 6.74816862 7.2185 6.3565 7.29683372 5.96483137 7.32816674 5.53400235 7.3125 5.064 7.29683325 4.59399765 7.16366792 4.10833584 6.913 3.607 6.78766604 3.35633208 6.60750117 3.11350117 6.3725 2.8785 6.13749882 2.64349882 5.87900141 2.4555007 5.597 2.3145 5.31499859 2.17349929 5.0173349 2.11866651 4.704 2.15 4.3906651 2.18133349 4.09300141 2.33799859 3.811 2.62 3.43499812 2.99600188 3.14516768 3.59132926 2.9415 4.406 2.73783231 5.22067074 2.58900047 6.10582855 2.495 7.0615 2.40099953 8.01717144 2.33833349 8.97282855 2.307 9.9285 2.27566651 10.8841714 2.24433349 11.7066632 2.213 12.396 2.8396698 12.5526674 3.43499718 12.6231667 3.999 12.6075 4.56300282 12.5918333 5.25232926 12.552667 6.067 12.49 6.41166839 12.427333 6.79549788 12.3881667 7.2185 12.3725 7.64150211 12.3568333 7.93133255 12.4743321 8.088 12.725 8.4013349 13.1323354 8.49533396 13.4456656 8.37 13.665 8.24466604 13.8843344 7.99400188 14.056666 7.618 14.182 7.24199812 14.307334 6.77983607 14.3856665 6.2315 14.417 5.68316392 14.4483335 5.15050258 14.464 4.6335 14.464L3.2 14.464C2.76133114 14.464 2.46366745 14.4796665 2.307 14.511 2.27566651 14.6050005 2.23650023 14.9574969 2.1895 15.5685 2.14249976 16.1795031 2.10333349 16.9001625 2.072 17.7305 2.04066651 18.5608375 2.025 19.4538286 2.025 20.4095 2.025 21.3651714 2.03283325 22.2581625 2.0485 23.0885 2.06416674 23.9188375 2.09549976 24.6081639 2.1425 25.1565 2.18950023 25.7048361 2.25999953 25.9946665 2.354 26.026 2.38533349 26.026 2.40883325 26.0338333 2.4245 26.0495 2.44016674 26.0651667 2.46366651 26.073 2.495 26.073L5.503 25.979C5.84766839 25.979 6.15316533 25.9868333 6.4195 26.0025 6.68583466 26.0181667 6.9051658 26.0729995 7.0775 26.167 7.24983419 26.2610005 7.35949976 26.4176656 7.4065 26.637 7.45350023 26.8563344 7.43000047 27.1696646 7.336 27.577zM13.117 17.237L13.117 19.164C13.117 19.9786707 13.1091667 20.816829 13.0935 21.6785 13.0778333 22.540171 13.0543335 23.370496 13.023 24.1695 12.9916665 24.968504 12.944667 25.5716646 12.882 25.979 12.882 26.041667 12.8898333 26.1904988 12.9055 26.4255 12.9211667 26.6605012 12.897667 26.8954988 12.835 27.1305 12.772333 27.3655012 12.6391677 27.545666 12.4355 27.671 12.2318323 27.796334 11.9263354 27.7806675 11.519 27.624 11.1743316 27.4359991 10.9785002 27.2401677 10.9315 27.0365 10.8844998 26.8328323 10.892333 26.5430019 10.955 26.167L11.331 19.822C11.393667 18.3179925 11.4328333 16.8845068 11.4485 15.5215L11.4955 11.4325C11.5111667 10.0694932 11.519 8.69084031 11.519 7.2965L11.519 2.902C11.519 2.40066416 11.5268333 1.97766839 11.5425 1.633 11.5581667 1.28833161 11.6129995 1.01416769 11.707.8105 11.8010005.606832315 11.9654988.47366698 12.2005.411 12.4355012.34833302 12.7723311.34833302 13.211.411 13.9630038.50500047 14.5974974.559833255 15.1145.5755 15.6315026.591166745 16.2033302.80266463 16.83 1.21 17.7386712 1.80533631 18.4436642 2.67482762 18.945 3.8185 19.4463358 4.96217239 19.7674993 6.18416017 19.9085 7.4845 20.0495007 8.78483984 20.0103344 10.0773269 19.791 11.362 19.5716656 12.6466731 19.2113358 13.7276623 18.71 14.605 18.4593321 15.0436689 18.0911691 15.4353316 17.6055 15.78 17.1198309 16.1246684 16.7360014 16.4379986 16.454 16.72 16.6106674 17.3466698 16.8691649 18.2083279 17.2295 19.305 17.5898351 20.4016722 17.8953321 21.4983279 18.146 22.595 18.271334 23.1276693 18.3888328 23.6603307 18.4985 24.193 18.6081672 24.7256693 18.7413325 25.2269977 18.898 25.697 19.1800014 26.6370047 19.2505007 27.3341644 19.1095 27.7885 18.9684993 28.2428356 18.7648347 28.4934998 18.4985 28.5405 18.2321653 28.5875002 17.9501682 28.4230019 17.6525 28.047 17.3548318 27.6709981 17.174667 27.1070038 17.112 26.355L15.796 20.151C15.670666 19.7123311 15.5688337 19.3676679 15.4905 19.117 15.4121663 18.8663321 15.341667 18.6626675 15.279 18.506 15.216333 18.3493326 15.1458337 18.1926675 15.0675 18.036 14.9891663 17.8793326 14.9030005 17.6600014 14.809 17.378L13.117 17.237zM13.164 15.498C14.2606722 15.498 15.1536632 15.2551691 15.843 14.7695 16.5323368 14.2838309 17.0493316 13.6571705 17.394 12.8895 17.7386684 12.1218295 17.9501663 11.2601714 18.0285 10.3045 18.1068337 9.34882855 18.1068337 8.42450446 18.0285 7.5315 17.9501663 6.63849553 17.8013344 5.8081705 17.582 5.0405 17.3626656 4.27282949 17.1433344 3.68533537 16.924 3.278 16.7673325 3.02733208 16.5480014 2.80016768 16.266 2.5965 15.9839986 2.39283231 15.6785016 2.24400047 15.3495 2.15 15.0204984 2.05599953 14.7071682 2.01683325 14.4095 2.0325 14.1118318 2.04816674 13.900334 2.13433255 13.775 2.291 13.6809995 2.38500047 13.6105002 2.75316345 13.5635 3.3955 13.5164998 4.03783654 13.4695002 4.81332879 13.4225 5.722 13.3754998 6.63067121 13.3363335 7.61766134 13.305 8.683 13.2736665 9.74833866 13.2501667 10.7588286 13.2345 11.7145 13.2188333 12.6701714 13.2031667 13.4926632 13.1875 14.182 13.1718333 14.8713368 13.164 15.3099991 13.164 15.498z"/>
        </g>
        <g fill="#4A4A4A" transform="translate(40 32)">
          <path d="M10.7365 6.111C10.7365 6.76900329 10.6111679 7.23899859 10.3605 7.521 10.1098321 7.80300141 9.85916792 7.91266698 9.6085 7.85 9.35783208 7.78733302 9.1463342 7.56800188 8.974 7.192 8.80166581 6.81599812 8.79383255 6.29900329 8.9505 5.641 9.04450047 5.3276651 9.03666722 4.99083514 8.927 4.6305 8.81733279 4.27016487 8.66066769 3.94900141 8.457 3.667 8.25333232 3.38499859 7.9948349 3.15000094 7.6815 2.962 7.3681651 2.77399906 7.03916839 2.68 6.6945 2.68 5.87982926 2.64866651 5.23750235 2.71916581 4.7675 2.8915 4.29749765 3.0638342 3.89016839 3.44766369 3.5455 4.043 3.32616557 4.48166886 3.14600071 5.04566322 3.005 5.735 2.8639993 6.42433678 2.77000024 7.14499624 2.723 7.897 2.67599977 8.64900376 2.69166628 9.36966322 2.77 10.059 2.84833373 10.7483368 2.98149906 11.2966646 3.1695 11.704 3.4828349 12.3620033 4.00766299 12.8398318 4.744 13.1375 5.48033702 13.4351682 6.24799601 13.7798314 7.047 14.1715 7.846004 14.5631686 8.56666346 15.1349962 9.209 15.887 9.85133655 16.6390038 10.2508326 17.813992 10.4075 19.412 10.470167 20.1640038 10.4858335 20.9864955 10.4545 21.8795 10.4231665 22.7725045 10.3135009 23.6341625 10.1255 24.4645 9.93749906 25.2948375 9.65550188 26.0389967 9.2795 26.697 8.90349812 27.3550033 8.43350282 27.8406651 7.8695 28.154 7.58749859 28.3106675 7.34466769 28.451666 7.141 28.577 6.93733232 28.702334 6.66316839 28.8119995 6.3185 28.906 5.97383161 29.031334 5.6448349 29.1096665 5.3315 29.141 5.0181651 29.1723335 4.67350188 29.156667 4.2975 29.094 4.01549859 29.031333 3.72566816 28.968667 3.428 28.906 3.13033185 28.843333 2.90316745 28.749334 2.7465 28.624 1.99449624 28.1226642 1.43050188 27.5195035 1.0545 26.8145.67849812 26.1094965.420000705 25.357504.279 24.5585.137999295 23.759496.09883302 22.9526707.1615 22.138.22416698 21.3233293.30249953 20.5400038.3965 19.788.42783349 19.5373321.42783349 19.2240019.3965 18.848.36516651 18.4719981.341666745 18.0960019.326 17.72.310333255 17.3439981.325999765 17.0071682.373 16.7095.420000235 16.4118318.55316557 16.2160005.7725 16.122 1.0858349 15.9653326 1.36783208 15.9731658 1.6185 16.1455 1.86916792 16.3178342 2.04149953 16.4979991 2.1355 16.686 2.35483443 17.1246689 2.44883349 17.6103307 2.4175 18.143 2.38616651 18.6756693 2.32350047 19.2239972 2.2295 19.788 2.13549953 20.3520028 2.02583396 20.9159972 1.9005 21.48 1.77516604 22.0440028 1.72816651 22.5923307 1.7595 23.125 1.79083349 23.5323354 1.82999977 23.9788309 1.877 24.4645 1.92400024 24.9501691 2.02583255 25.4123311 2.1825 25.851 2.33916745 26.2896689 2.56633185 26.6656651 2.864 26.979 3.16166816 27.2923349 3.54549765 27.4959995 4.0155 27.59 4.70483678 27.715334 5.33149718 27.6605012 5.8955 27.4255 6.45950282 27.1904988 6.92949812 26.9006684 7.3055 26.556 7.6188349 26.2739986 7.87733232 25.7883368 8.081 25.099 8.28466769 24.4096632 8.44133279 23.665504 8.551 22.8665 8.66066722 22.067496 8.72333326 21.2841705 8.739 20.5165 8.75466675 19.7488295 8.73116698 19.1456689 8.6685 18.707 8.57449953 17.9549962 8.31600212 17.3675021 7.893 16.9445 7.46999789 16.5214979 7.02350235 16.1376684 6.5535 15.793 6.11483114 15.5109986 5.57433655 15.2525012 4.932 15.0175 4.28966346 14.7824988 3.74916886 14.5240014 3.3105 14.242 2.74649718 13.8973316 2.34700118 13.5526684 2.112 13.208 1.87699883 12.8633316 1.63416792 12.3306703 1.3835 11.61 1.25816604 11.4219991 1.15633373 11.0225031 1.078 10.4115.999666275 9.80049695.968333255 9.10333725.984 8.32.999666745 7.53666275 1.0779993 6.73767074 1.219 5.923 1.36000071 5.10832926 1.57149859 4.3876698 1.8535 3.761 2.04150094 3.38499812 2.37049765 2.9541691 2.8405 2.4685 3.31050235 1.98283091 3.73349812 1.67733396 4.1095 1.552 5.14350517 1.17599812 6.07566252 1.0584993 6.906 1.1995 7.73633749 1.34050071 8.43349718 1.64599765 8.9975 2.116 9.56150282 2.58600235 9.99233185 3.17349648 10.29 3.8785 10.5876682 4.58350353 10.7365 5.32766275 10.7365 6.111zM12.8045 28.436C12.6164991 28.0913316 12.553833 27.7623349 12.6165 27.449 12.679167 27.1356651 12.741833 26.7596689 12.8045 26.321 12.8045 26.0389986 12.8123333 25.3261724 12.828 24.1825 12.8436667 23.0388276 12.8671665 21.668008 12.8985 20.07 12.9298335 18.471992 12.9689998 16.7486759 13.016 14.9 13.0630002 13.0513241 13.1099998 11.3045082 13.157 9.6595 13.2040002 8.01449178 13.2509998 6.5653396 13.298 5.312 13.3450002 4.0586604 13.3841665 3.21266886 13.4155 2.774 13.4155 2.58599906 13.3998335 2.39800094 13.3685 2.21 13.3371665 2.02199906 13.3136667 1.85750071 13.298 1.7165 13.2823333 1.5754993 13.305833 1.45016722 13.3685 1.3405 13.431167 1.23083279 13.5564991 1.14466698 13.7445 1.082 14.2458358.92533255 14.5826658.95666557 14.755 1.176 14.9273342 1.39533443 15.0135 1.73999765 15.0135 2.21 15.0135 2.68000235 14.9665005 3.25182997 14.8725 3.9255 14.7784995 4.59917004 14.7315 5.32766275 14.7315 6.111L14.5905 25.71C14.5591665 26.1173354 14.5356667 26.4698318 14.52 26.7675 14.5043333 27.0651682 14.6688316 27.2609995 15.0135 27.355 15.138834 27.3863335 15.3973314 27.4098333 15.789 27.4255 16.1806686 27.4411667 16.5958311 27.4568333 17.0345 27.4725 17.4731689 27.4881667 17.8804981 27.496 18.2565 27.496 18.6325019 27.496 18.883166 27.464667 19.0085 27.402 19.4158354 27.2453326 19.7134991 26.8771696 19.9015 26.2975 20.0895009 25.7178304 20.2069998 25.0990033 20.254 24.441 20.3010002 23.7829967 20.3010002 23.1563363 20.254 22.561 20.2069998 21.9656637 20.1678335 21.5583344 20.1365 21.339 20.1051665 20.8689976 20.1756658 20.5400009 20.348 20.352 20.5203342 20.1639991 20.7161656 20.0856665 20.9355 20.117 21.1548344 20.1483335 21.3663323 20.2971653 21.57 20.5635 21.7736677 20.8298347 21.8911665 21.1823311 21.9225 21.621 21.9538335 22.2476698 21.9773333 22.9056632 21.993 23.595 22.0086667 24.2843368 21.985167 24.8639977 21.9225 25.334 21.859833 25.7100019 21.7893337 26.0468318 21.711 26.3445 21.6326663 26.6421682 21.5151675 26.9319986 21.3585 27.214 20.9198311 27.9660038 20.4498358 28.4673321 19.9485 28.718 19.4471642 28.9686679 18.9145028 29.094 18.3505 29.094 17.7864972 29.094 17.1755033 29.0391672 16.5175 28.9295 15.8594967 28.8198328 15.1545038 28.7806665 14.4025 28.812 14.1831656 28.812 13.9403347 28.8276665 13.674 28.859 13.4076653 28.8903335 13.1178349 28.7493349 12.8045 28.436zM25.6355 25.475C25.6355 25.8196684 25.6511665 26.1721649 25.6825 26.5325 25.7138335 26.8928351 25.7295 27.2374984 25.7295 27.5665 25.7295 27.8955016 25.6825005 28.1853321 25.5885 28.436 25.4944995 28.6866679 25.3065014 28.874666 25.0245 29 24.8678325 29.062667 24.7816667 29.1018333 24.766 29.1175 24.7503333 29.1331667 24.6328344 29.109667 24.4135 29.047 24.0374981 28.921666 23.8495 28.5770028 23.8495 28.013 23.8181665 27.7309986 23.8259998 27.5038342 23.873 27.3315 23.9200002 27.1591658 23.9435 26.9006684 23.9435 26.556 23.9121665 25.7413293 23.9199998 24.7386726 23.967 23.548 24.0140002 22.3573274 24.0766663 21.1196731 24.155 19.835 24.2333337 18.5503269 24.303833 17.2735063 24.3665 16.0045 24.429167 14.7354937 24.4761665 13.5996717 24.5075 12.597 24.5075 12.0643307 24.4840002 11.5316693 24.437 10.999 24.3899998 10.4663307 24.397833 9.93366933 24.4605 9.401 24.4605 9.24433255 24.4526667 8.84483655 24.437 8.2025 24.4213333 7.56016346 24.4056667 6.87867027 24.39 6.158 24.3743333 5.43732973 24.3665 4.79500282 24.3665 4.231L24.3665 3.338C24.5231674 2.86799765 24.8208311 2.67216628 25.2595 2.7505 25.6981689 2.82883373 25.980166 3.04033161 26.1055 3.385 26.0741665 5.32767638 26.0350002 7.30165664 25.988 9.307 25.9409998 11.3123434 25.8940002 13.2706571 25.847 15.182 25.7999998 17.0933429 25.7608335 18.9263246 25.7295 20.681 25.6981665 22.4356754 25.6668335 24.0336595 25.6355 25.475zM28.9255 2.21C29.0195005 1.92799859 29.2623314 1.74000047 29.654 1.646 30.0456686 1.55199953 30.4843309 1.51283326 30.97 1.5285 31.4556691 1.54416675 31.9256644 1.60683279 32.38 1.7165 32.8343356 1.82616722 33.1711656 1.92799953 33.3905 2.022 33.9231693 2.27266792 34.3618316 2.54683185 34.7065 2.8445 35.0511684 3.14216816 35.4114981 3.6043302 35.7875 4.231 36.1008349 4.73233584 36.3358326 5.30416346 36.4925 5.9465 36.6491674 6.58883655 36.7744995 7.27032973 36.8685 7.991 36.9625005 8.71167027 37.0173333 9.44016299 37.033 10.1765 37.0486667 10.912837 37.0721665 11.6256632 37.1035 12.315L37.3385 21.574C37.401167 23.3600089 37.3228344 24.7386618 37.1035 25.71 36.8841656 26.6813382 36.5081693 27.4019977 35.9755 27.872 35.4428307 28.3420024 34.745671 28.639666 33.884 28.765 33.022329 28.890334 32.0118391 28.9999995 30.8525 29.094 30.6644991 29.094 30.4138349 29.125333 30.1005 29.188 29.7871651 29.250667 29.4738349 29.2585002 29.1605 29.2115 28.8471651 29.1644998 28.5730012 29.0313344 28.338 28.812 28.1029988 28.5926656 27.9855 28.2010028 27.9855 27.637 27.9855 27.1356642 27.9933333 26.1956736 28.009 24.817 28.0246667 23.4383264 28.0559998 21.8560089 28.103 20.07 28.1500002 18.2839911 28.204833 16.4040099 28.2675 14.43 28.330167 12.4559901 28.392833 10.607342 28.4555 8.884 28.518167 7.16065805 28.5886663 5.68800611 28.667 4.466 28.7453337 3.24399389 28.8314995 2.49200141 28.9255 2.21zM30.2885 3.432C30.3198335 5.24934242 30.3120002 7.11365711 30.265 9.025 30.2179998 10.9363429 30.163167 12.8789901 30.1005 14.853 30.037833 16.8270099 29.975167 18.8244899 29.9125 20.8455 29.849833 22.8665101 29.8341665 24.8639901 29.8655 26.838 29.8655 27.3080024 29.9046663 27.5664998 29.983 27.6135 30.0613337 27.6605002 30.3511642 27.652667 30.8525 27.59 31.0405009 27.5586665 31.2911651 27.5273335 31.6045 27.496 31.9178349 27.4646665 32.2389984 27.4255002 32.568 27.3785 32.8970016 27.3314998 33.2103318 27.2688337 33.508 27.1905 33.8056682 27.1121663 34.0328325 27.0260005 34.1895 26.932 34.5655019 26.6813321 34.8553323 26.3445021 35.059 25.9215 35.2626677 25.4984979 35.4193328 25.0128361 35.529 24.4645 35.6386672 23.9161639 35.7013333 23.3365031 35.717 22.7255 35.7326667 22.1144969 35.7248335 21.5113363 35.6935 20.916 35.6621665 20.4459977 35.6465 19.7958375 35.6465 18.9655 35.6465 18.1351625 35.6386667 17.2343382 35.623 16.263 35.6073333 15.2916618 35.5838335 14.2890052 35.5525 13.255 35.5211665 12.2209948 35.4898335 11.2496712 35.4585 10.341 35.4271665 9.43232879 35.3880002 8.63333678 35.341 7.944 35.2939998 7.25466322 35.239167 6.76900141 35.1765 6.487 34.8944986 5.42166134 34.5420021 4.66183561 34.119 4.2075 33.6959979 3.7531644 33.2573356 3.47116722 32.803 3.3615 32.3486644 3.25183279 31.8943356 3.23616628 31.44 3.3145 30.9856644 3.39283373 30.6018349 3.432 30.2885 3.432zM46.4095 28.577C46.2214991 28.6710005 45.7985033 28.7414998 45.1405 28.7885 44.4824967 28.8355002 43.7775038 28.8511667 43.0255 28.8355 42.2734962 28.8198333 41.56067 28.7728337 40.887 28.6945 40.21333 28.6161663 39.7825009 28.4830009 39.5945 28.295 39.4064991 28.169666 39.2890002 27.5586721 39.242 26.462 39.1949998 25.3653278 39.1793333 24.0101747 39.195 22.3965 39.2106667 20.7828253 39.2576663 19.0438427 39.336 17.1795 39.4143337 15.3151573 39.5004995 13.5448417 39.5945 11.8685 39.6885005 10.1921583 39.7903328 8.7273396 39.9 7.474 40.0096672 6.2206604 40.1114995 5.42166839 40.2055 5.077 40.4248344 4.23099577 40.8243304 3.4946698 41.404 2.868 41.9836696 2.2413302 42.6181632 1.81833443 43.3075 1.599 43.9968368 1.37966557 44.7018297 1.43449835 45.4225 1.7635 46.1431703 2.09250164 46.7541642 2.78966134 47.2555 3.855 47.7255023 4.85767168 47.9605 5.75066275 47.9605 6.534 47.9605 7.31733725 47.897834 8.24166134 47.7725 9.307 47.3651646 9.58900141 47.0518344 9.69083372 46.8325 9.6125 46.6131656 9.53416627 46.3311684 9.30700188 45.9865 8.931 45.923833 8.83699953 45.9394995 8.64900141 46.0335 8.367 46.1275005 8.08499859 46.2136663 7.74816862 46.292 7.3565 46.3703337 6.96483137 46.4016667 6.53400235 46.386 6.064 46.3703333 5.59399765 46.2371679 5.10833584 45.9865 4.607 45.861166 4.35633208 45.6810012 4.11350117 45.446 3.8785 45.2109988 3.64349882 44.9525014 3.4555007 44.6705 3.3145 44.3884986 3.17349929 44.0908349 3.11866651 43.7775 3.15 43.4641651 3.18133349 43.1665014 3.33799859 42.8845 3.62 42.5084981 3.99600188 42.2186677 4.59132926 42.015 5.406 41.8113323 6.22067074 41.6625005 7.10582855 41.5685 8.0615 41.4744995 9.01717144 41.4118335 9.97282855 41.3805 10.9285 41.3491665 11.8841714 41.3178335 12.7066632 41.2865 13.396 41.9131698 13.5526674 42.5084972 13.6231667 43.0725 13.6075 43.6365028 13.5918333 44.3258293 13.552667 45.1405 13.49 45.4851684 13.427333 45.8689979 13.3881667 46.292 13.3725 46.7150021 13.3568333 47.0048325 13.4743321 47.1615 13.725 47.4748349 14.1323354 47.568834 14.4456656 47.4435 14.665 47.318166 14.8843344 47.0675019 15.056666 46.6915 15.182 46.3154981 15.307334 45.8533361 15.3856665 45.305 15.417 44.7566639 15.4483335 44.2240026 15.464 43.707 15.464L42.2735 15.464C41.8348311 15.464 41.5371674 15.4796665 41.3805 15.511 41.3491665 15.6050005 41.3100002 15.9574969 41.263 16.5685 41.2159998 17.1795031 41.1768335 17.9001625 41.1455 18.7305 41.1141665 19.5608375 41.0985 20.4538286 41.0985 21.4095 41.0985 22.3651714 41.1063333 23.2581625 41.122 24.0885 41.1376667 24.9188375 41.1689998 25.6081639 41.216 26.1565 41.2630002 26.7048361 41.3334995 26.9946665 41.4275 27.026 41.4588335 27.026 41.4823333 27.0338333 41.498 27.0495 41.5136667 27.0651667 41.5371665 27.073 41.5685 27.073L44.5765 26.979C44.9211684 26.979 45.2266653 26.9868333 45.493 27.0025 45.7593347 27.0181667 45.9786658 27.0729995 46.151 27.167 46.3233342 27.2610005 46.4329998 27.4176656 46.48 27.637 46.5270002 27.8563344 46.5035005 28.1696646 46.4095 28.577zM52.1905 18.237L52.1905 20.164C52.1905 20.9786707 52.1826667 21.816829 52.167 22.6785 52.1513333 23.540171 52.1278335 24.370496 52.0965 25.1695 52.0651665 25.968504 52.018167 26.5716646 51.9555 26.979 51.9555 27.041667 51.9633333 27.1904988 51.979 27.4255 51.9946667 27.6605012 51.971167 27.8954988 51.9085 28.1305 51.845833 28.3655012 51.7126677 28.545666 51.509 28.671 51.3053323 28.796334 50.9998354 28.7806675 50.5925 28.624 50.2478316 28.4359991 50.0520002 28.2401677 50.005 28.0365 49.9579998 27.8328323 49.965833 27.5430019 50.0285 27.167L50.4045 20.822C50.467167 19.3179925 50.5063333 17.8845068 50.522 16.5215L50.569 12.4325C50.5846667 11.0694932 50.5925 9.69084031 50.5925 8.2965L50.5925 3.902C50.5925 3.40066416 50.6003333 2.97766839 50.616 2.633 50.6316667 2.28833161 50.6864995 2.01416769 50.7805 1.8105 50.8745005 1.60683232 51.0389988 1.47366698 51.274 1.411 51.5090012 1.34833302 51.8458311 1.34833302 52.2845 1.411 53.0365038 1.50500047 53.6709974 1.55983326 54.188 1.5755 54.7050026 1.59116675 55.2768302 1.80266463 55.9035 2.21 56.8121712 2.80533631 57.5171642 3.67482762 58.0185 4.8185 58.5198358 5.96217239 58.8409993 7.18416017 58.982 8.4845 59.1230007 9.78483984 59.0838344 11.0773269 58.8645 12.362 58.6451656 13.6466731 58.2848358 14.7276623 57.7835 15.605 57.5328321 16.0436689 57.1646691 16.4353316 56.679 16.78 56.1933309 17.1246684 55.8095014 17.4379986 55.5275 17.72 55.6841674 18.3466698 55.9426649 19.2083279 56.303 20.305 56.6633351 21.4016721 56.9688321 22.4983279 57.2195 23.595 57.344834 24.1276693 57.4623328 24.6603307 57.572 25.193 57.6816672 25.7256693 57.8148325 26.2269977 57.9715 26.697 58.2535014 27.6370047 58.3240007 28.3341644 58.183 28.7885 58.0419993 29.2428356 57.8383347 29.4934998 57.572 29.5405 57.3056653 29.5875002 57.0236682 29.4230019 56.726 29.047 56.4283318 28.6709981 56.248167 28.1070038 56.1855 27.355L54.8695 21.151C54.744166 20.7123311 54.6423337 20.3676679 54.564 20.117 54.4856663 19.8663321 54.415167 19.6626675 54.3525 19.506 54.289833 19.3493326 54.2193337 19.1926675 54.141 19.036 54.0626663 18.8793326 53.9765005 18.6600014 53.8825 18.378L52.1905 18.237zM52.2375 16.498C53.3341721 16.498 54.2271632 16.2551691 54.9165 15.7695 55.6058368 15.2838309 56.1228316 14.6571705 56.4675 13.8895 56.8121684 13.1218295 57.0236663 12.2601714 57.102 11.3045 57.1803337 10.3488286 57.1803337 9.42450446 57.102 8.5315 57.0236663 7.63849553 56.8748344 6.8081705 56.6555 6.0405 56.4361656 5.27282949 56.2168344 4.68533537 55.9975 4.278 55.8408325 4.02733208 55.6215014 3.80016768 55.3395 3.5965 55.0574986 3.39283231 54.7520016 3.24400047 54.423 3.15 54.0939984 3.05599953 53.7806682 3.01683325 53.483 3.0325 53.1853318 3.04816674 52.973834 3.13433255 52.8485 3.291 52.7544995 3.38500047 52.6840002 3.75316345 52.637 4.3955 52.5899998 5.03783654 52.5430002 5.81332879 52.496 6.722 52.4489998 7.63067121 52.4098335 8.61766134 52.3785 9.683 52.3471665 10.7483387 52.3236667 11.7588286 52.308 12.7145 52.2923333 13.6701714 52.2766667 14.4926632 52.261 15.182 52.2453333 15.8713368 52.2375 16.3099991 52.2375 16.498z"/>
        </g>
      </g>
      <rect width="261" height="1" y="72" fill="#4A4A4A"/>
    </g>
  </g>
</svg>
